G04*
G04 #@! TF.GenerationSoftware,Altium Limited,Altium Designer,22.4.2 (48)*
G04*
G04 Layer_Color=16711935*
%FSLAX25Y25*%
%MOIN*%
G70*
G04*
G04 #@! TF.SameCoordinates,2971098F-D652-4CA7-83C6-057752F44447*
G04*
G04*
G04 #@! TF.FilePolarity,Negative*
G04*
G01*
G75*
%ADD33C,0.05918*%
G04:AMPARAMS|DCode=34|XSize=59.18mil|YSize=59.18mil|CornerRadius=16.8mil|HoleSize=0mil|Usage=FLASHONLY|Rotation=0.000|XOffset=0mil|YOffset=0mil|HoleType=Round|Shape=RoundedRectangle|*
%AMROUNDEDRECTD34*
21,1,0.05918,0.02559,0,0,0.0*
21,1,0.02559,0.05918,0,0,0.0*
1,1,0.03359,0.01280,-0.01280*
1,1,0.03359,-0.01280,-0.01280*
1,1,0.03359,-0.01280,0.01280*
1,1,0.03359,0.01280,0.01280*
%
%ADD34ROUNDEDRECTD34*%
%ADD35C,0.19698*%
%ADD36C,0.07887*%
%ADD37C,0.08477*%
%ADD38R,0.08477X0.08477*%
%ADD39C,0.09658*%
G04:AMPARAMS|DCode=40|XSize=96.58mil|YSize=96.58mil|CornerRadius=26.15mil|HoleSize=0mil|Usage=FLASHONLY|Rotation=180.000|XOffset=0mil|YOffset=0mil|HoleType=Round|Shape=RoundedRectangle|*
%AMROUNDEDRECTD40*
21,1,0.09658,0.04429,0,0,180.0*
21,1,0.04429,0.09658,0,0,180.0*
1,1,0.05229,-0.02215,0.02215*
1,1,0.05229,0.02215,0.02215*
1,1,0.05229,0.02215,-0.02215*
1,1,0.05229,-0.02215,-0.02215*
%
%ADD40ROUNDEDRECTD40*%
%ADD41C,0.06800*%
%ADD42C,0.07296*%
G04:AMPARAMS|DCode=43|XSize=72.96mil|YSize=72.96mil|CornerRadius=20.24mil|HoleSize=0mil|Usage=FLASHONLY|Rotation=0.000|XOffset=0mil|YOffset=0mil|HoleType=Round|Shape=RoundedRectangle|*
%AMROUNDEDRECTD43*
21,1,0.07296,0.03248,0,0,0.0*
21,1,0.03248,0.07296,0,0,0.0*
1,1,0.04048,0.01624,-0.01624*
1,1,0.04048,-0.01624,-0.01624*
1,1,0.04048,-0.01624,0.01624*
1,1,0.04048,0.01624,0.01624*
%
%ADD43ROUNDEDRECTD43*%
%ADD44C,0.07874*%
%ADD45R,0.07874X0.07874*%
%ADD46C,0.06048*%
%ADD47R,0.06048X0.06048*%
%ADD48R,0.07001X0.07001*%
%ADD49C,0.07001*%
%ADD50R,0.09599X0.09599*%
%ADD51C,0.09599*%
%ADD52C,0.06410*%
%ADD53R,0.06410X0.06410*%
%ADD54R,0.07296X0.07296*%
%ADD55R,0.07296X0.07296*%
%ADD56R,0.07591X0.07591*%
%ADD57C,0.07591*%
%ADD58R,0.07591X0.07591*%
%ADD59C,0.05461*%
%ADD60R,0.05461X0.05461*%
%ADD61R,0.08477X0.08477*%
%ADD62C,0.05359*%
%ADD63R,0.05359X0.05359*%
%ADD64C,0.08359*%
%ADD65R,0.08359X0.08359*%
%ADD66C,0.08300*%
%ADD67C,0.03300*%
D33*
X247610Y25000D02*
D03*
X316063Y170000D02*
D03*
X546063Y165000D02*
D03*
X291063Y170000D02*
D03*
D34*
X261390Y25000D02*
D03*
X323937Y170000D02*
D03*
X553937Y165000D02*
D03*
X298937Y170000D02*
D03*
D35*
X17953Y275000D02*
D03*
X62047D02*
D03*
D36*
X49843Y302559D02*
D03*
X30157D02*
D03*
X40000Y245472D02*
D03*
X49843D02*
D03*
X30157D02*
D03*
D37*
X515000Y290000D02*
D03*
X350000D02*
D03*
X600000Y120000D02*
D03*
D38*
X535000Y290000D02*
D03*
X370000D02*
D03*
D39*
X460000D02*
D03*
X405000D02*
D03*
D40*
X480000D02*
D03*
X425000D02*
D03*
D41*
X120000Y20000D02*
D03*
Y300000D02*
D03*
X155000D02*
D03*
Y20000D02*
D03*
X610000Y300000D02*
D03*
D42*
X556630Y56000D02*
D03*
X75000Y25000D02*
D03*
X65000Y35000D02*
D03*
Y25000D02*
D03*
X55000Y35000D02*
D03*
Y25000D02*
D03*
X45000Y35000D02*
D03*
Y25000D02*
D03*
X35000Y35000D02*
D03*
Y25000D02*
D03*
X600000Y220000D02*
D03*
X610000D02*
D03*
X600000Y210000D02*
D03*
X610000D02*
D03*
X600000Y200000D02*
D03*
X610000D02*
D03*
X600000Y190000D02*
D03*
X610000D02*
D03*
X600000Y180000D02*
D03*
D43*
X596000Y56000D02*
D03*
D44*
X204528Y250079D02*
D03*
Y269921D02*
D03*
Y289764D02*
D03*
X175000Y250079D02*
D03*
Y269921D02*
D03*
Y289764D02*
D03*
Y190000D02*
D03*
D45*
X204528D02*
D03*
D46*
X305000Y209685D02*
D03*
X300000Y215000D02*
D03*
X210000Y90000D02*
D03*
X215000Y84685D02*
D03*
X210000Y160000D02*
D03*
X215000Y154685D02*
D03*
X210000Y125315D02*
D03*
X215000Y120000D02*
D03*
D47*
X295000Y209685D02*
D03*
X205000Y84685D02*
D03*
Y154685D02*
D03*
Y120000D02*
D03*
D48*
X520000Y24488D02*
D03*
D49*
Y80000D02*
D03*
D50*
X294289Y20400D02*
D03*
X295000Y45000D02*
D03*
D51*
X314289Y20400D02*
D03*
X334289D02*
D03*
X354289D02*
D03*
X315000Y45000D02*
D03*
X335000D02*
D03*
X355000D02*
D03*
D52*
X60000Y185000D02*
D03*
Y175000D02*
D03*
Y165000D02*
D03*
Y155000D02*
D03*
Y145000D02*
D03*
Y135000D02*
D03*
Y125000D02*
D03*
Y115000D02*
D03*
X20000D02*
D03*
Y125000D02*
D03*
Y135000D02*
D03*
Y145000D02*
D03*
Y155000D02*
D03*
Y165000D02*
D03*
Y175000D02*
D03*
D53*
Y185000D02*
D03*
D54*
X75000Y35000D02*
D03*
D55*
X610000Y180000D02*
D03*
D56*
X490000Y50000D02*
D03*
X480000Y205000D02*
D03*
X380000Y110000D02*
D03*
X480000Y160000D02*
D03*
Y100000D02*
D03*
D57*
Y50000D02*
D03*
X490000Y60000D02*
D03*
X480000D02*
D03*
X490000Y70000D02*
D03*
X480000D02*
D03*
Y215000D02*
D03*
Y225000D02*
D03*
X380000Y100000D02*
D03*
Y90000D02*
D03*
Y80000D02*
D03*
Y70000D02*
D03*
X480000Y170000D02*
D03*
Y180000D02*
D03*
Y110000D02*
D03*
Y120000D02*
D03*
Y130000D02*
D03*
X490000Y25000D02*
D03*
X480000D02*
D03*
D58*
X500000D02*
D03*
D59*
X460374Y220000D02*
D03*
Y210000D02*
D03*
Y200000D02*
D03*
Y190000D02*
D03*
Y180000D02*
D03*
Y170000D02*
D03*
Y160000D02*
D03*
Y150000D02*
D03*
Y140000D02*
D03*
Y130000D02*
D03*
Y120000D02*
D03*
Y110000D02*
D03*
Y100000D02*
D03*
Y90000D02*
D03*
Y80000D02*
D03*
Y70000D02*
D03*
Y60000D02*
D03*
Y50000D02*
D03*
Y40000D02*
D03*
Y30000D02*
D03*
X399626D02*
D03*
Y40000D02*
D03*
Y50000D02*
D03*
Y60000D02*
D03*
Y70000D02*
D03*
Y80000D02*
D03*
Y90000D02*
D03*
Y100000D02*
D03*
Y110000D02*
D03*
Y120000D02*
D03*
Y130000D02*
D03*
Y140000D02*
D03*
Y150000D02*
D03*
Y160000D02*
D03*
Y170000D02*
D03*
Y180000D02*
D03*
Y190000D02*
D03*
Y200000D02*
D03*
Y210000D02*
D03*
D60*
Y220000D02*
D03*
D61*
X600000Y140000D02*
D03*
D62*
X370374Y180000D02*
D03*
Y170000D02*
D03*
Y160000D02*
D03*
Y150000D02*
D03*
X339626D02*
D03*
Y160000D02*
D03*
Y170000D02*
D03*
D63*
Y180000D02*
D03*
D64*
X170000Y135000D02*
D03*
Y145000D02*
D03*
D65*
Y155000D02*
D03*
D66*
X335000Y215000D02*
D03*
Y225000D02*
D03*
X365000D02*
D03*
Y215000D02*
D03*
D67*
X441800Y170000D02*
D03*
X269880Y199000D02*
D03*
X236260Y195000D02*
D03*
X113500Y139500D02*
D03*
X278200Y273200D02*
D03*
X251560D02*
D03*
X273480Y195400D02*
D03*
X254900Y241100D02*
D03*
Y253900D02*
D03*
X307300Y241100D02*
D03*
X92100Y224700D02*
D03*
X239000Y216400D02*
D03*
X352500Y222500D02*
D03*
X260700Y136100D02*
D03*
X445300Y180000D02*
D03*
X388900Y33300D02*
D03*
X240260Y16840D02*
D03*
X510000Y183500D02*
D03*
X76950Y41900D02*
D03*
X95600Y216600D02*
D03*
X251900Y189300D02*
D03*
X232000Y200700D02*
D03*
X320300Y261700D02*
D03*
X480000Y93700D02*
D03*
X517900Y190000D02*
D03*
X592800Y180800D02*
D03*
X72800Y177800D02*
D03*
X76300Y169500D02*
D03*
X72750Y167750D02*
D03*
X64300Y190800D02*
D03*
X72500Y105800D02*
D03*
X90000Y149500D02*
D03*
X96000Y116200D02*
D03*
X114100Y131900D02*
D03*
X111100Y149500D02*
D03*
X114600Y154500D02*
D03*
X105000Y70700D02*
D03*
X315000Y242300D02*
D03*
X266260Y123500D02*
D03*
X271600Y141100D02*
D03*
X309900Y300100D02*
D03*
X230060Y135000D02*
D03*
M02*
