G04*
G04 #@! TF.GenerationSoftware,Altium Limited,Altium Designer,22.4.2 (48)*
G04*
G04 Layer_Physical_Order=1*
G04 Layer_Color=255*
%FSLAX25Y25*%
%MOIN*%
G70*
G04*
G04 #@! TF.SameCoordinates,2971098F-D652-4CA7-83C6-057752F44447*
G04*
G04*
G04 #@! TF.FilePolarity,Positive*
G04*
G01*
G75*
%ADD11C,0.01000*%
%ADD16R,0.03937X0.05512*%
%ADD17R,0.07480X0.02756*%
%ADD18R,0.04528X0.03150*%
%ADD19R,0.13386X0.03937*%
%ADD20R,0.33858X0.42126*%
%ADD21R,0.03543X0.05118*%
%ADD22R,0.03740X0.05709*%
%ADD23R,0.06514X0.11048*%
%ADD24R,0.02835X0.01654*%
%ADD44C,0.07874*%
%ADD45R,0.07874X0.07874*%
%ADD68C,0.02500*%
%ADD69C,0.05118*%
G04:AMPARAMS|DCode=70|XSize=51.18mil|YSize=51.18mil|CornerRadius=12.8mil|HoleSize=0mil|Usage=FLASHONLY|Rotation=0.000|XOffset=0mil|YOffset=0mil|HoleType=Round|Shape=RoundedRectangle|*
%AMROUNDEDRECTD70*
21,1,0.05118,0.02559,0,0,0.0*
21,1,0.02559,0.05118,0,0,0.0*
1,1,0.02559,0.01280,-0.01280*
1,1,0.02559,-0.01280,-0.01280*
1,1,0.02559,-0.01280,0.01280*
1,1,0.02559,0.01280,0.01280*
%
%ADD70ROUNDEDRECTD70*%
%ADD71C,0.18898*%
%ADD72C,0.07087*%
%ADD73C,0.07677*%
%ADD74R,0.07677X0.07677*%
%ADD75C,0.08858*%
G04:AMPARAMS|DCode=76|XSize=88.58mil|YSize=88.58mil|CornerRadius=22.15mil|HoleSize=0mil|Usage=FLASHONLY|Rotation=180.000|XOffset=0mil|YOffset=0mil|HoleType=Round|Shape=RoundedRectangle|*
%AMROUNDEDRECTD76*
21,1,0.08858,0.04429,0,0,180.0*
21,1,0.04429,0.08858,0,0,180.0*
1,1,0.04429,-0.02215,0.02215*
1,1,0.04429,0.02215,0.02215*
1,1,0.04429,0.02215,-0.02215*
1,1,0.04429,-0.02215,-0.02215*
%
%ADD76ROUNDEDRECTD76*%
%ADD77C,0.06000*%
%ADD78C,0.06496*%
G04:AMPARAMS|DCode=79|XSize=64.96mil|YSize=64.96mil|CornerRadius=16.24mil|HoleSize=0mil|Usage=FLASHONLY|Rotation=0.000|XOffset=0mil|YOffset=0mil|HoleType=Round|Shape=RoundedRectangle|*
%AMROUNDEDRECTD79*
21,1,0.06496,0.03248,0,0,0.0*
21,1,0.03248,0.06496,0,0,0.0*
1,1,0.03248,0.01624,-0.01624*
1,1,0.03248,-0.01624,-0.01624*
1,1,0.03248,-0.01624,0.01624*
1,1,0.03248,0.01624,0.01624*
%
%ADD79ROUNDEDRECTD79*%
%ADD80C,0.05248*%
%ADD81R,0.05248X0.05248*%
%ADD82R,0.06201X0.06201*%
%ADD83C,0.06201*%
%ADD84R,0.08799X0.08799*%
%ADD85C,0.08799*%
%ADD86C,0.05610*%
%ADD87R,0.05610X0.05610*%
%ADD88R,0.06496X0.06496*%
%ADD89R,0.06496X0.06496*%
%ADD90R,0.06791X0.06791*%
%ADD91C,0.06791*%
%ADD92R,0.06791X0.06791*%
%ADD93C,0.04661*%
%ADD94R,0.04661X0.04661*%
%ADD95R,0.07677X0.07677*%
%ADD96C,0.04559*%
%ADD97R,0.04559X0.04559*%
%ADD98C,0.07559*%
%ADD99R,0.07559X0.07559*%
%ADD100C,0.07500*%
%ADD101C,0.02500*%
G36*
X307493Y301224D02*
X307746Y300806D01*
X307736Y300756D01*
X307650Y300548D01*
Y300322D01*
X307606Y300100D01*
X307650Y299878D01*
Y299652D01*
X307736Y299444D01*
X307781Y299222D01*
X307906Y299034D01*
X307993Y298826D01*
X308152Y298666D01*
X308278Y298478D01*
X313291Y293464D01*
Y287306D01*
X312829Y287115D01*
X299100Y300844D01*
X299292Y301306D01*
X307398D01*
X307493Y301224D01*
D02*
G37*
G36*
X373806Y299650D02*
Y294839D01*
X365161D01*
Y288406D01*
X363378Y286622D01*
X362880Y285878D01*
X362706Y285000D01*
Y229160D01*
X362083Y228801D01*
X361199Y227917D01*
X360574Y226833D01*
X360250Y225625D01*
Y224375D01*
X360574Y223167D01*
X361199Y222083D01*
X362083Y221199D01*
X363167Y220574D01*
X364375Y220250D01*
X365625D01*
X366833Y220574D01*
X367917Y221199D01*
X368801Y222083D01*
X369426Y223167D01*
X369750Y224375D01*
Y225625D01*
X369426Y226833D01*
X368801Y227917D01*
X367917Y228801D01*
X367294Y229160D01*
Y284050D01*
X368406Y285161D01*
X373806D01*
Y181615D01*
X373306Y181481D01*
X372998Y182014D01*
X372388Y182624D01*
X371640Y183056D01*
X370806Y183280D01*
X369942D01*
X369108Y183056D01*
X368360Y182624D01*
X367750Y182014D01*
X367318Y181266D01*
X367094Y180432D01*
Y179568D01*
X367318Y178734D01*
X367750Y177986D01*
X368360Y177376D01*
X369108Y176944D01*
X369942Y176720D01*
X370806D01*
X371640Y176944D01*
X372388Y177376D01*
X372998Y177986D01*
X373306Y178519D01*
X373806Y178385D01*
Y171615D01*
X373306Y171481D01*
X372998Y172014D01*
X372388Y172624D01*
X371640Y173056D01*
X370806Y173280D01*
X369942D01*
X369108Y173056D01*
X368360Y172624D01*
X367750Y172014D01*
X367318Y171266D01*
X367094Y170432D01*
Y169568D01*
X367318Y168734D01*
X367750Y167986D01*
X368360Y167376D01*
X369108Y166944D01*
X369942Y166720D01*
X370806D01*
X371640Y166944D01*
X372388Y167376D01*
X372998Y167986D01*
X373306Y168519D01*
X373806Y168385D01*
Y161615D01*
X373306Y161481D01*
X372998Y162014D01*
X372388Y162624D01*
X371640Y163056D01*
X370806Y163279D01*
X370339D01*
X354794Y178824D01*
Y222500D01*
X354750Y222722D01*
Y222948D01*
X354663Y223156D01*
X354620Y223378D01*
X354494Y223566D01*
X354408Y223775D01*
X354248Y223934D01*
X354122Y224122D01*
X353934Y224248D01*
X353774Y224408D01*
X353566Y224494D01*
X353378Y224620D01*
X353156Y224663D01*
X352948Y224750D01*
X352722D01*
X352500Y224794D01*
X352278Y224750D01*
X352052D01*
X351844Y224663D01*
X351622Y224620D01*
X351434Y224494D01*
X351225Y224408D01*
X351066Y224248D01*
X350878Y224122D01*
X350752Y223934D01*
X350592Y223775D01*
X350506Y223566D01*
X350380Y223378D01*
X350337Y223156D01*
X350250Y222948D01*
Y222722D01*
X350206Y222500D01*
Y177874D01*
X350380Y176996D01*
X350878Y176252D01*
X367094Y160035D01*
Y159568D01*
X367318Y158734D01*
X367750Y157986D01*
X368360Y157376D01*
X369108Y156944D01*
X369942Y156720D01*
X370806D01*
X371640Y156944D01*
X372388Y157376D01*
X372998Y157986D01*
X373306Y158519D01*
X373806Y158385D01*
Y151615D01*
X373306Y151481D01*
X372998Y152014D01*
X372388Y152624D01*
X371640Y153056D01*
X370806Y153279D01*
X369942D01*
X369108Y153056D01*
X368394Y152644D01*
X368132Y152713D01*
X367894Y152811D01*
Y153600D01*
X367720Y154478D01*
X367222Y155222D01*
X345422Y177022D01*
X344678Y177520D01*
X343800Y177694D01*
X342905D01*
Y183280D01*
X339591D01*
X331294Y191576D01*
Y211335D01*
X331756Y211526D01*
X332083Y211199D01*
X333167Y210574D01*
X334375Y210250D01*
X334500D01*
Y215000D01*
Y219750D01*
X334375D01*
X333167Y219426D01*
X332083Y218801D01*
X331756Y218474D01*
X331294Y218665D01*
Y221335D01*
X331756Y221527D01*
X332083Y221199D01*
X333167Y220574D01*
X334375Y220250D01*
X335625D01*
X336833Y220574D01*
X337917Y221199D01*
X338801Y222083D01*
X339426Y223167D01*
X339750Y224375D01*
Y225625D01*
X339426Y226833D01*
X338801Y227917D01*
X337917Y228801D01*
X337294Y229160D01*
Y274050D01*
X348608Y285364D01*
X349363Y285161D01*
X350637D01*
X351868Y285491D01*
X352971Y286128D01*
X353872Y287029D01*
X354509Y288132D01*
X354839Y289363D01*
Y290637D01*
X354509Y291868D01*
X353872Y292971D01*
X352971Y293872D01*
X351868Y294509D01*
X350637Y294839D01*
X349363D01*
X348132Y294509D01*
X347029Y293872D01*
X346128Y292971D01*
X345491Y291868D01*
X345161Y290637D01*
Y289363D01*
X345364Y288608D01*
X333378Y276622D01*
X332993Y276046D01*
X332493Y276198D01*
Y295701D01*
X332318Y296579D01*
X331821Y297323D01*
X323938Y305206D01*
X323944Y305325D01*
X324059Y305706D01*
X367750D01*
X373806Y299650D01*
D02*
G37*
G36*
X327905Y294751D02*
Y277792D01*
X327443Y277600D01*
X326034Y279009D01*
Y286244D01*
X326709D01*
Y293756D01*
X320772D01*
Y286244D01*
X321446D01*
Y278059D01*
X321621Y277181D01*
X322118Y276437D01*
X324299Y274256D01*
X324149Y273756D01*
X319512D01*
Y269476D01*
X318678Y268642D01*
X318468Y268328D01*
X317969Y268480D01*
Y273756D01*
X317294D01*
Y281700D01*
X317120Y282578D01*
X316622Y283322D01*
X314162Y285782D01*
X314353Y286244D01*
X319228D01*
Y293756D01*
X318551D01*
X318379Y294618D01*
X317882Y295362D01*
X312400Y300844D01*
X312592Y301306D01*
X321350D01*
X327905Y294751D01*
D02*
G37*
G36*
X251322Y300806D02*
X251260Y300764D01*
X244252Y293756D01*
X244240D01*
Y290000D01*
Y286244D01*
X246709D01*
Y289724D01*
X253833Y296848D01*
X263508D01*
X266138Y294218D01*
X265947Y293756D01*
X262032D01*
Y286244D01*
X262706D01*
Y280950D01*
X254240Y272484D01*
X253836Y272737D01*
X253810Y272761D01*
Y272978D01*
X253854Y273200D01*
X253810Y273422D01*
Y273648D01*
X253723Y273856D01*
X253679Y274078D01*
X253554Y274266D01*
X253467Y274475D01*
X253308Y274634D01*
X253182Y274822D01*
X242222Y285782D01*
X242413Y286244D01*
X243240D01*
Y289500D01*
X240772D01*
Y287886D01*
X240310Y287694D01*
X239228Y288776D01*
Y293756D01*
X234742D01*
X234535Y294256D01*
X241585Y301306D01*
X251171D01*
X251322Y300806D01*
D02*
G37*
G36*
X620000Y5000D02*
X145000D01*
Y310000D01*
X236118D01*
X236291Y309500D01*
X226919Y300128D01*
X226422Y299384D01*
X226247Y298506D01*
Y279619D01*
X226422Y278741D01*
X226919Y277996D01*
X233291Y271624D01*
Y266244D01*
X239228D01*
Y273756D01*
X237648D01*
X230835Y280569D01*
Y282302D01*
X231297Y282494D01*
X240772Y273019D01*
Y266244D01*
X241446D01*
Y264631D01*
X234638Y257822D01*
X234140Y257078D01*
X233966Y256200D01*
Y253756D01*
X233291D01*
Y246244D01*
X239228D01*
Y253756D01*
X238554D01*
Y255250D01*
X245362Y262058D01*
X245860Y262803D01*
X246034Y263680D01*
Y266244D01*
X246709D01*
Y273756D01*
X245943D01*
X245860Y274173D01*
X245362Y274917D01*
X234535Y285744D01*
X234742Y286244D01*
X235271D01*
X249938Y271578D01*
X250126Y271452D01*
X250285Y271292D01*
X250494Y271206D01*
X250682Y271080D01*
X250904Y271037D01*
X251112Y270950D01*
X251338D01*
X251560Y270906D01*
X251781Y270950D01*
X252007D01*
X252216Y271037D01*
X252373Y271068D01*
X252566Y270931D01*
X252765Y270698D01*
X252606Y269900D01*
Y253900D01*
X252650Y253678D01*
Y253452D01*
X252736Y253244D01*
X252781Y253022D01*
X252906Y252834D01*
X252993Y252625D01*
X253152Y252466D01*
X253278Y252278D01*
X253466Y252152D01*
X253625Y251993D01*
X253834Y251906D01*
X254022Y251781D01*
X254244Y251736D01*
X254452Y251650D01*
X254678D01*
X254900Y251606D01*
X255122Y251650D01*
X255348D01*
X255556Y251736D01*
X255778Y251781D01*
X255966Y251906D01*
X256174Y251993D01*
X256334Y252152D01*
X256522Y252278D01*
X256648Y252466D01*
X256807Y252625D01*
X256894Y252834D01*
X257019Y253022D01*
X257064Y253244D01*
X257150Y253452D01*
Y253678D01*
X257194Y253900D01*
Y268950D01*
X266622Y278378D01*
X267120Y279122D01*
X267294Y280000D01*
Y286244D01*
X267969D01*
Y291734D01*
X268430Y291925D01*
X269512Y290844D01*
Y290500D01*
X272480D01*
X275449D01*
Y293756D01*
X273088D01*
X266080Y300764D01*
X266018Y300806D01*
X266169Y301306D01*
X292408D01*
X292600Y300844D01*
X288378Y296622D01*
X287880Y295878D01*
X287706Y295000D01*
Y293756D01*
X287032D01*
Y286244D01*
X292969D01*
Y293756D01*
X292707D01*
X292500Y294256D01*
X295850Y297606D01*
X299238Y294218D01*
X299046Y293756D01*
X297980D01*
Y290500D01*
X300449D01*
Y292354D01*
X300911Y292545D01*
X312706Y280750D01*
Y273756D01*
X312032D01*
Y266244D01*
X312706D01*
Y249945D01*
X312206Y249738D01*
X309122Y252822D01*
X308378Y253320D01*
X307500Y253494D01*
X301700D01*
X300822Y253320D01*
X300078Y252822D01*
X294550Y247294D01*
X293264D01*
Y247575D01*
X292294D01*
Y266244D01*
X292969D01*
Y273756D01*
X287544D01*
X287520Y273878D01*
X287022Y274622D01*
X281000Y280644D01*
X281192Y281106D01*
X289730D01*
X295186Y275650D01*
Y273756D01*
X294512D01*
Y270500D01*
X297480D01*
X300449D01*
Y273756D01*
X299775D01*
Y276600D01*
X299600Y277478D01*
X299103Y278222D01*
X296681Y280644D01*
X296872Y281106D01*
X297480D01*
X298358Y281280D01*
X299103Y281778D01*
X299600Y282522D01*
X299775Y283400D01*
Y286244D01*
X300449D01*
Y289500D01*
X297480D01*
X294512D01*
Y286244D01*
X295186D01*
Y285694D01*
X275950D01*
X275752Y285892D01*
X275449Y286244D01*
X275449D01*
X275449Y286244D01*
Y289500D01*
X272480D01*
X269512D01*
Y286244D01*
X270186D01*
Y285920D01*
X270361Y285042D01*
X270858Y284297D01*
X273378Y281778D01*
X279282Y275874D01*
X279120Y275329D01*
X279078Y275320D01*
X278856Y275363D01*
X278648Y275450D01*
X278422D01*
X278200Y275494D01*
X277978Y275450D01*
X277752D01*
X277544Y275363D01*
X277322Y275320D01*
X277134Y275194D01*
X276925Y275108D01*
X276766Y274948D01*
X276578Y274822D01*
X276128Y274372D01*
X275630Y274421D01*
X275362Y274822D01*
X274618Y275320D01*
X273740Y275494D01*
X272862Y275320D01*
X272118Y274822D01*
X271621Y274078D01*
X271557Y273756D01*
X270772D01*
Y269016D01*
X269690Y267935D01*
X269228Y268126D01*
Y273756D01*
X263291D01*
Y267876D01*
X259078Y263662D01*
X258580Y262918D01*
X258406Y262040D01*
Y238350D01*
X247171Y227115D01*
X246709Y227306D01*
Y233756D01*
X246034D01*
Y235619D01*
X249221Y238806D01*
X254900D01*
X255122Y238850D01*
X255348D01*
X255556Y238936D01*
X255778Y238981D01*
X255966Y239106D01*
X256174Y239193D01*
X256334Y239352D01*
X256522Y239478D01*
X256648Y239666D01*
X256807Y239826D01*
X256894Y240034D01*
X257019Y240222D01*
X257064Y240444D01*
X257150Y240652D01*
Y240878D01*
X257194Y241100D01*
X257150Y241322D01*
Y241548D01*
X257064Y241756D01*
X257019Y241978D01*
X256894Y242166D01*
X256807Y242374D01*
X256648Y242534D01*
X256522Y242722D01*
X256334Y242848D01*
X256174Y243007D01*
X255966Y243094D01*
X255778Y243219D01*
X255556Y243264D01*
X255348Y243350D01*
X255122D01*
X254900Y243394D01*
X248271D01*
X247393Y243219D01*
X246649Y242722D01*
X245921Y241995D01*
X245533Y242314D01*
X245860Y242803D01*
X246034Y243680D01*
Y246244D01*
X246709D01*
Y253756D01*
X240772D01*
Y246244D01*
X241446D01*
Y244631D01*
X234638Y237822D01*
X234140Y237078D01*
X233966Y236200D01*
Y233756D01*
X233291D01*
Y226244D01*
X239228D01*
Y233756D01*
X238554D01*
Y235250D01*
X241559Y238255D01*
X241947Y237936D01*
X241621Y237447D01*
X241446Y236569D01*
Y233756D01*
X240772D01*
Y226244D01*
X245647D01*
X245838Y225782D01*
X244050Y223994D01*
X186700D01*
X185822Y223819D01*
X185078Y223322D01*
X155278Y193522D01*
X154780Y192778D01*
X154606Y191900D01*
Y94150D01*
X154780Y93272D01*
X155278Y92528D01*
X236928Y10878D01*
X237672Y10380D01*
X238550Y10206D01*
X356600D01*
X357478Y10380D01*
X358222Y10878D01*
X363322Y15978D01*
X363820Y16722D01*
X363994Y17600D01*
Y124508D01*
X364456Y124700D01*
X370778Y118378D01*
X371522Y117880D01*
X372400Y117706D01*
X395592D01*
X395743Y117206D01*
X395497Y117041D01*
X387278Y108822D01*
X386781Y108078D01*
X386606Y107200D01*
Y33300D01*
X386650Y33078D01*
Y32852D01*
X386736Y32644D01*
X386781Y32422D01*
X386906Y32234D01*
X386993Y32026D01*
X387152Y31866D01*
X387278Y31678D01*
X387466Y31552D01*
X387626Y31392D01*
X387834Y31306D01*
X388022Y31181D01*
X388244Y31137D01*
X388452Y31050D01*
X388678D01*
X388900Y31006D01*
X389122Y31050D01*
X389348D01*
X389556Y31137D01*
X389778Y31181D01*
X389966Y31306D01*
X390175Y31392D01*
X390334Y31552D01*
X390522Y31678D01*
X390648Y31866D01*
X390808Y32026D01*
X390894Y32234D01*
X391020Y32422D01*
X391063Y32644D01*
X391150Y32852D01*
Y33078D01*
X391194Y33300D01*
Y106250D01*
X395922Y110978D01*
X396371Y110719D01*
X396295Y110439D01*
Y109562D01*
X396522Y108714D01*
X396961Y107955D01*
X397581Y107335D01*
X398340Y106896D01*
X399187Y106669D01*
X400065D01*
X400912Y106896D01*
X401671Y107335D01*
X402291Y107955D01*
X402730Y108714D01*
X402957Y109562D01*
Y110439D01*
X402730Y111286D01*
X402291Y112045D01*
X401711Y112625D01*
X401731Y112801D01*
X401874Y113125D01*
X404207D01*
X404913Y113266D01*
X405413Y112963D01*
Y101857D01*
X403457Y99901D01*
X402957Y100108D01*
Y100438D01*
X402730Y101286D01*
X402291Y102045D01*
X401671Y102665D01*
X400912Y103104D01*
X400065Y103331D01*
X399187D01*
X398340Y103104D01*
X397581Y102665D01*
X396961Y102045D01*
X396522Y101286D01*
X396295Y100438D01*
Y99562D01*
X396522Y98714D01*
X396961Y97955D01*
X397522Y97394D01*
X397512Y97172D01*
X397384Y96871D01*
X396622Y96719D01*
X395878Y96222D01*
X393378Y93722D01*
X392881Y92978D01*
X392706Y92100D01*
Y47500D01*
X392881Y46622D01*
X393378Y45878D01*
X395878Y43378D01*
X396622Y42880D01*
X397012Y42803D01*
X397176Y42261D01*
X396961Y42045D01*
X396522Y41286D01*
X396295Y40439D01*
Y39562D01*
X396522Y38714D01*
X396961Y37955D01*
X397581Y37335D01*
X398340Y36896D01*
X399187Y36669D01*
X400065D01*
X400912Y36896D01*
X401671Y37335D01*
X402291Y37955D01*
X402730Y38714D01*
X402957Y39562D01*
Y40439D01*
X402730Y41286D01*
X402291Y42045D01*
X402130Y42206D01*
X402338Y42706D01*
X457662D01*
X457870Y42206D01*
X457709Y42045D01*
X457270Y41286D01*
X457043Y40439D01*
Y39562D01*
X457270Y38714D01*
X457709Y37955D01*
X458329Y37335D01*
X459088Y36896D01*
X459936Y36669D01*
X460813D01*
X461660Y36896D01*
X462419Y37335D01*
X462790Y37706D01*
X464050D01*
X475725Y26030D01*
X475604Y25579D01*
Y24421D01*
X475904Y23303D01*
X476483Y22301D01*
X477301Y21483D01*
X478303Y20904D01*
X479421Y20604D01*
X480579D01*
X481697Y20904D01*
X482699Y21483D01*
X483517Y22301D01*
X484096Y23303D01*
X484396Y24421D01*
Y25579D01*
X484096Y26697D01*
X483517Y27699D01*
X482699Y28517D01*
X481697Y29096D01*
X480579Y29396D01*
X479421D01*
X478970Y29275D01*
X466622Y41622D01*
X465878Y42120D01*
X465443Y42206D01*
X465492Y42706D01*
X475000D01*
X475878Y42880D01*
X476622Y43378D01*
X478970Y45725D01*
X479421Y45604D01*
X480579D01*
X481697Y45904D01*
X482699Y46483D01*
X483517Y47301D01*
X484096Y48303D01*
X484396Y49421D01*
Y50579D01*
X484096Y51697D01*
X483517Y52699D01*
X482699Y53517D01*
X481697Y54096D01*
X480579Y54396D01*
X479421D01*
X478303Y54096D01*
X477301Y53517D01*
X476483Y52699D01*
X475904Y51697D01*
X475604Y50579D01*
Y49421D01*
X475725Y48970D01*
X474050Y47294D01*
X463086D01*
X462878Y47794D01*
X463039Y47955D01*
X463478Y48714D01*
X463705Y49562D01*
Y50086D01*
X466622Y53004D01*
X467119Y53748D01*
X467294Y54626D01*
Y114050D01*
X475853Y122609D01*
X476253Y122302D01*
X475904Y121697D01*
X475604Y120579D01*
Y119421D01*
X475904Y118303D01*
X476483Y117301D01*
X477301Y116483D01*
X478303Y115904D01*
X479421Y115604D01*
X480579D01*
X481697Y115904D01*
X482699Y116483D01*
X482944Y116728D01*
X483406Y116536D01*
Y113464D01*
X482944Y113272D01*
X482699Y113517D01*
X481697Y114096D01*
X480579Y114396D01*
X480500D01*
Y110000D01*
X480000D01*
Y109500D01*
X475604D01*
Y109421D01*
X475725Y108970D01*
X472678Y105922D01*
X472181Y105178D01*
X472006Y104300D01*
Y75700D01*
X472181Y74822D01*
X472678Y74078D01*
X475725Y71030D01*
X475604Y70579D01*
Y70500D01*
X479500D01*
Y74396D01*
X479421D01*
X478970Y74275D01*
X476594Y76650D01*
Y95604D01*
X477969D01*
X478215Y95197D01*
X478222Y95104D01*
X478092Y94974D01*
X478006Y94766D01*
X477881Y94578D01*
X477837Y94356D01*
X477750Y94148D01*
Y93922D01*
X477706Y93700D01*
X477750Y93478D01*
Y93252D01*
X477837Y93044D01*
X477881Y92822D01*
X478006Y92634D01*
X478092Y92426D01*
X478252Y92266D01*
X478378Y92078D01*
X487706Y82750D01*
Y73751D01*
X487301Y73517D01*
X486483Y72699D01*
X485904Y71697D01*
X485604Y70579D01*
Y69421D01*
X485904Y68303D01*
X486483Y67301D01*
X487301Y66483D01*
X488303Y65904D01*
X489421Y65604D01*
X490579D01*
X491697Y65904D01*
X492699Y66483D01*
X493517Y67301D01*
X494096Y68303D01*
X494396Y69421D01*
Y70579D01*
X494096Y71697D01*
X493517Y72699D01*
X492699Y73517D01*
X492294Y73751D01*
Y83700D01*
X492120Y84578D01*
X491622Y85322D01*
X481840Y95104D01*
X482047Y95604D01*
X484396D01*
Y101151D01*
X487322Y104078D01*
X487819Y104822D01*
X487994Y105700D01*
Y154300D01*
X487819Y155178D01*
X487322Y155922D01*
X486000Y157244D01*
X486192Y157706D01*
X518444D01*
X518494Y157206D01*
X518059Y157120D01*
X517315Y156622D01*
X516818Y155878D01*
X516643Y155000D01*
Y153854D01*
X516067D01*
Y146146D01*
X516643D01*
Y133854D01*
X516067D01*
Y126146D01*
X521807D01*
Y126795D01*
X522269Y126987D01*
X522706Y126550D01*
Y111524D01*
X520743D01*
Y99394D01*
X518029D01*
Y111524D01*
X510494D01*
Y125187D01*
X511453Y126146D01*
X513933D01*
Y133854D01*
X508193D01*
Y129374D01*
X507456Y128637D01*
X506994Y128829D01*
Y146550D01*
X507693Y147249D01*
X508193Y147041D01*
Y146146D01*
X513933D01*
Y153854D01*
X508193D01*
Y152294D01*
X507200D01*
X506322Y152120D01*
X505578Y151622D01*
X503078Y149122D01*
X502581Y148378D01*
X502406Y147500D01*
Y84500D01*
X502581Y83622D01*
X503078Y82878D01*
X512978Y72978D01*
X513722Y72481D01*
X514600Y72306D01*
X570600D01*
X571478Y72481D01*
X572222Y72978D01*
X607722Y108478D01*
X608219Y109222D01*
X608394Y110100D01*
Y173900D01*
X608219Y174778D01*
X607903Y175252D01*
X608170Y175752D01*
X614248D01*
Y184248D01*
X605752D01*
Y178146D01*
X605290Y177954D01*
X604154Y179090D01*
X604248Y179441D01*
Y180559D01*
X603959Y181640D01*
X603399Y182608D01*
X602608Y183399D01*
X601640Y183958D01*
X600559Y184248D01*
X599441D01*
X599090Y184154D01*
X579794Y203450D01*
Y234900D01*
X579620Y235778D01*
X579122Y236522D01*
X573438Y242206D01*
X573444Y242325D01*
X573559Y242706D01*
X574050D01*
X595846Y220910D01*
X595752Y220559D01*
Y220500D01*
X599500D01*
Y224248D01*
X599441D01*
X599090Y224154D01*
X576622Y246622D01*
X575878Y247119D01*
X575000Y247294D01*
X460800D01*
X459922Y247119D01*
X459178Y246622D01*
X440178Y227622D01*
X439681Y226878D01*
X439506Y226000D01*
Y170000D01*
X439550Y169778D01*
Y169552D01*
X439637Y169344D01*
X439681Y169122D01*
X439806Y168934D01*
X439892Y168726D01*
X440052Y168566D01*
X440178Y168378D01*
X440366Y168252D01*
X440525Y168093D01*
X440734Y168006D01*
X440922Y167880D01*
X441144Y167836D01*
X441353Y167750D01*
X441578D01*
X441800Y167706D01*
X442022Y167750D01*
X442247D01*
X442456Y167836D01*
X442678Y167880D01*
X442866Y168006D01*
X443075Y168093D01*
X443234Y168252D01*
X443422Y168378D01*
X443548Y168566D01*
X443708Y168726D01*
X443794Y168934D01*
X443919Y169122D01*
X443963Y169344D01*
X444050Y169552D01*
Y169778D01*
X444094Y170000D01*
Y177498D01*
X444176Y177594D01*
X444594Y177846D01*
X444644Y177837D01*
X444852Y177750D01*
X445078D01*
X445300Y177706D01*
X445522Y177750D01*
X445748D01*
X445956Y177837D01*
X446178Y177881D01*
X446366Y178006D01*
X446574Y178093D01*
X446734Y178252D01*
X446922Y178378D01*
X447048Y178566D01*
X447207Y178726D01*
X447294Y178934D01*
X447419Y179122D01*
X447464Y179344D01*
X447550Y179552D01*
Y179778D01*
X447594Y180000D01*
Y218714D01*
X467186Y238306D01*
X467908D01*
X468100Y237844D01*
X450578Y220322D01*
X450081Y219578D01*
X449906Y218700D01*
Y113524D01*
X399712Y63331D01*
X399187D01*
X398340Y63104D01*
X397794Y62788D01*
X397294Y63050D01*
Y66950D01*
X397794Y67212D01*
X398340Y66896D01*
X399187Y66669D01*
X400065D01*
X400912Y66896D01*
X401671Y67335D01*
X402291Y67955D01*
X402730Y68714D01*
X402957Y69561D01*
Y70438D01*
X402730Y71286D01*
X402291Y72045D01*
X401671Y72665D01*
X400912Y73104D01*
X400065Y73331D01*
X399187D01*
X398340Y73104D01*
X397794Y72788D01*
X397294Y73050D01*
Y76950D01*
X397794Y77212D01*
X398340Y76896D01*
X399187Y76669D01*
X400065D01*
X400912Y76896D01*
X401671Y77335D01*
X402291Y77955D01*
X402730Y78714D01*
X402957Y79562D01*
Y80439D01*
X402730Y81286D01*
X402291Y82045D01*
X401671Y82665D01*
X400912Y83104D01*
X400065Y83331D01*
X399187D01*
X398340Y83104D01*
X397794Y82788D01*
X397294Y83050D01*
Y86950D01*
X397794Y87212D01*
X398340Y86896D01*
X399187Y86669D01*
X400065D01*
X400912Y86896D01*
X401671Y87335D01*
X402291Y87955D01*
X402730Y88714D01*
X402957Y89561D01*
Y90438D01*
X402730Y91286D01*
X402328Y91981D01*
X402314Y92124D01*
X402449Y92595D01*
X403022Y92978D01*
X409329Y99285D01*
X409826Y100029D01*
X410001Y100907D01*
Y171919D01*
X409826Y172797D01*
X409329Y173541D01*
X402957Y179914D01*
Y180438D01*
X402730Y181286D01*
X402291Y182045D01*
X401671Y182665D01*
X400912Y183104D01*
X400065Y183331D01*
X399187D01*
X398340Y183104D01*
X397794Y182788D01*
X397294Y183050D01*
Y186950D01*
X397794Y187212D01*
X398340Y186896D01*
X399187Y186669D01*
X400065D01*
X400912Y186896D01*
X401671Y187335D01*
X402291Y187955D01*
X402730Y188714D01*
X402957Y189561D01*
Y190438D01*
X402730Y191286D01*
X402291Y192045D01*
X401671Y192665D01*
X400912Y193104D01*
X400065Y193331D01*
X399187D01*
X398340Y193104D01*
X397794Y192788D01*
X397294Y193050D01*
Y196950D01*
X397794Y197212D01*
X398340Y196896D01*
X399187Y196669D01*
X400065D01*
X400912Y196896D01*
X401671Y197335D01*
X402291Y197955D01*
X402730Y198714D01*
X402957Y199562D01*
Y200438D01*
X402730Y201286D01*
X402429Y201806D01*
X402710Y202306D01*
X405800D01*
X406678Y202481D01*
X407422Y202978D01*
X434122Y229678D01*
X434619Y230422D01*
X434794Y231300D01*
Y241550D01*
X477787Y284543D01*
X482215D01*
X483054Y284654D01*
X483836Y284978D01*
X484507Y285493D01*
X485022Y286164D01*
X485346Y286946D01*
X485457Y287785D01*
Y292215D01*
X485346Y293054D01*
X485022Y293836D01*
X484507Y294507D01*
X483836Y295023D01*
X483054Y295346D01*
X482215Y295457D01*
X477785D01*
X476946Y295346D01*
X476164Y295023D01*
X475493Y294507D01*
X474977Y293836D01*
X474654Y293054D01*
X474543Y292215D01*
Y287787D01*
X430878Y244122D01*
X430381Y243378D01*
X430206Y242500D01*
Y232250D01*
X404850Y206894D01*
X401908D01*
X401772Y207147D01*
X401730Y207394D01*
X402291Y207955D01*
X402730Y208714D01*
X402957Y209561D01*
Y210438D01*
X402730Y211286D01*
X402291Y212045D01*
X401671Y212665D01*
X400912Y213104D01*
X400065Y213331D01*
X399187D01*
X398340Y213104D01*
X397581Y212665D01*
X396961Y212045D01*
X396522Y211286D01*
X396295Y210438D01*
Y209561D01*
X396522Y208714D01*
X396961Y207955D01*
X397522Y207394D01*
X397512Y207172D01*
X397384Y206871D01*
X396622Y206719D01*
X395878Y206222D01*
X393378Y203722D01*
X392881Y202978D01*
X392706Y202100D01*
Y137081D01*
X392881Y136203D01*
X393378Y135459D01*
X395878Y132959D01*
X396124Y132794D01*
X395972Y132294D01*
X382150D01*
X378394Y136050D01*
Y300600D01*
X378220Y301478D01*
X377722Y302222D01*
X370444Y309500D01*
X370617Y310000D01*
X620000D01*
Y5000D01*
D02*
G37*
G36*
X135000Y206998D02*
X134538Y206806D01*
X119622Y221722D01*
X115022Y226322D01*
X114278Y226819D01*
X113400Y226994D01*
X92100D01*
X91878Y226950D01*
X91652D01*
X91444Y226864D01*
X91222Y226819D01*
X91034Y226694D01*
X90825Y226607D01*
X90666Y226448D01*
X90478Y226322D01*
X90352Y226134D01*
X90193Y225974D01*
X90106Y225766D01*
X89981Y225578D01*
X89937Y225356D01*
X89850Y225148D01*
Y224922D01*
X89806Y224700D01*
X89850Y224478D01*
Y224252D01*
X89937Y224044D01*
X89981Y223822D01*
X90106Y223634D01*
X90193Y223426D01*
X90352Y223266D01*
X90478Y223078D01*
X90666Y222952D01*
X90724Y222894D01*
X90588Y222422D01*
X90571Y222394D01*
X88740D01*
X87862Y222219D01*
X87118Y221722D01*
X86621Y220978D01*
X86446Y220100D01*
Y218756D01*
X85772D01*
Y212194D01*
X84228D01*
Y218756D01*
X83554D01*
Y220250D01*
X90362Y227058D01*
X90860Y227802D01*
X91034Y228680D01*
Y231244D01*
X91709D01*
Y232706D01*
X98488D01*
Y231441D01*
X104031D01*
Y236071D01*
X104493Y236262D01*
X105969Y234787D01*
Y231441D01*
X111512D01*
Y238559D01*
X108685D01*
X105522Y241722D01*
X104778Y242219D01*
X103900Y242394D01*
X84500D01*
X83622Y242219D01*
X82878Y241722D01*
X80330Y239174D01*
X52137Y267367D01*
Y270334D01*
X52637Y270454D01*
X53111Y269524D01*
X54077Y268193D01*
X55240Y267030D01*
X56571Y266063D01*
X58036Y265317D01*
X59600Y264809D01*
X61225Y264551D01*
X62870D01*
X64494Y264809D01*
X66058Y265317D01*
X67524Y266063D01*
X68854Y267030D01*
X70017Y268193D01*
X70984Y269524D01*
X71731Y270989D01*
X72239Y272553D01*
X72496Y274178D01*
Y275822D01*
X72239Y277447D01*
X71731Y279011D01*
X70984Y280476D01*
X70017Y281807D01*
X68854Y282970D01*
X67524Y283937D01*
X66058Y284683D01*
X64494Y285191D01*
X62870Y285449D01*
X61225D01*
X59600Y285191D01*
X58036Y284683D01*
X56571Y283937D01*
X55240Y282970D01*
X54077Y281807D01*
X53111Y280476D01*
X52637Y279546D01*
X52137Y279666D01*
Y298637D01*
X52632Y298923D01*
X53478Y299769D01*
X54076Y300805D01*
X54386Y301961D01*
Y303157D01*
X54076Y304313D01*
X53478Y305349D01*
X52632Y306194D01*
X51596Y306793D01*
X50441Y307102D01*
X49244D01*
X48089Y306793D01*
X47053Y306194D01*
X46207Y305349D01*
X45609Y304313D01*
X45299Y303157D01*
Y301961D01*
X45609Y300805D01*
X46207Y299769D01*
X47053Y298923D01*
X47548Y298637D01*
Y266417D01*
X47723Y265539D01*
X48220Y264795D01*
X78016Y235000D01*
X52328Y209313D01*
X51940Y209631D01*
X51962Y209665D01*
X52137Y210543D01*
Y241551D01*
X52632Y241837D01*
X53478Y242683D01*
X54076Y243719D01*
X54386Y244874D01*
Y246071D01*
X54076Y247226D01*
X53478Y248262D01*
X52632Y249108D01*
X51596Y249706D01*
X50441Y250016D01*
X49244D01*
X48089Y249706D01*
X47053Y249108D01*
X46207Y248262D01*
X45609Y247226D01*
X45299Y246071D01*
Y244874D01*
X45609Y243719D01*
X46207Y242683D01*
X47053Y241837D01*
X47548Y241551D01*
Y211493D01*
X46278Y210222D01*
X45781Y209478D01*
X45606Y208600D01*
Y42100D01*
X45781Y41222D01*
X46278Y40478D01*
X50846Y35910D01*
X50752Y35559D01*
Y34441D01*
X51042Y33360D01*
X51601Y32392D01*
X52392Y31601D01*
X53360Y31041D01*
X54441Y30752D01*
X55559D01*
X56640Y31041D01*
X57608Y31601D01*
X58399Y32392D01*
X58959Y33360D01*
X59248Y34441D01*
Y35559D01*
X58959Y36640D01*
X58399Y37608D01*
X57608Y38399D01*
X56640Y38958D01*
X55559Y39248D01*
X54441D01*
X54090Y39154D01*
X50194Y43050D01*
Y94608D01*
X50656Y94800D01*
X62706Y82750D01*
Y38581D01*
X62392Y38399D01*
X61601Y37608D01*
X61041Y36640D01*
X60752Y35559D01*
Y34441D01*
X61041Y33360D01*
X61601Y32392D01*
X62392Y31601D01*
X63360Y31041D01*
X64441Y30752D01*
X65559D01*
X66640Y31041D01*
X67608Y31601D01*
X68399Y32392D01*
X68958Y33360D01*
X69248Y34441D01*
Y35559D01*
X68958Y36640D01*
X68399Y37608D01*
X67608Y38399D01*
X67294Y38581D01*
Y83700D01*
X67119Y84578D01*
X66622Y85322D01*
X53694Y98250D01*
Y109608D01*
X54156Y109800D01*
X65178Y98778D01*
X65922Y98281D01*
X66800Y98106D01*
X72500D01*
X73378Y98281D01*
X74122Y98778D01*
X77722Y102378D01*
X78219Y103122D01*
X78394Y104000D01*
Y132122D01*
X86843D01*
Y136878D01*
X87207Y137206D01*
X89050D01*
X93706Y132550D01*
Y116200D01*
X93750Y115978D01*
Y115752D01*
X93836Y115544D01*
X93881Y115322D01*
X94006Y115134D01*
X94093Y114926D01*
X94252Y114766D01*
X94378Y114578D01*
X94566Y114452D01*
X94726Y114293D01*
X94934Y114206D01*
X95122Y114081D01*
X95344Y114037D01*
X95552Y113950D01*
X95778D01*
X96000Y113906D01*
X96222Y113950D01*
X96448D01*
X96656Y114037D01*
X96878Y114081D01*
X97066Y114206D01*
X97275Y114293D01*
X97434Y114452D01*
X97622Y114578D01*
X97678Y114662D01*
X98013Y114596D01*
X98178Y114489D01*
Y78559D01*
X97701D01*
Y77294D01*
X92772D01*
Y78559D01*
X90500D01*
Y75000D01*
Y71441D01*
X92772D01*
Y72706D01*
X97701D01*
Y71441D01*
X99972D01*
Y75000D01*
X100972D01*
Y71441D01*
X102706D01*
Y70700D01*
X102750Y70478D01*
Y70252D01*
X102837Y70044D01*
X102881Y69822D01*
X103006Y69634D01*
X103093Y69425D01*
X103252Y69266D01*
X103378Y69078D01*
X103566Y68952D01*
X103726Y68792D01*
X103934Y68706D01*
X104122Y68581D01*
X104222Y68561D01*
X104350Y68303D01*
X104356Y68055D01*
X103989Y67681D01*
X99128D01*
X98250Y67507D01*
X97505Y67010D01*
X91496Y61000D01*
X91034Y61192D01*
Y62760D01*
X90860Y63638D01*
X90362Y64382D01*
X83596Y71149D01*
X83716Y71441D01*
X83716D01*
Y78559D01*
X78173D01*
Y71441D01*
X78651D01*
Y70555D01*
X78825Y69677D01*
X79323Y68933D01*
X86446Y61810D01*
Y58559D01*
X85969D01*
Y51441D01*
X86446D01*
Y49690D01*
X84016Y47260D01*
X83554Y47451D01*
Y51441D01*
X84031D01*
Y58559D01*
X78488D01*
Y51441D01*
X78966D01*
Y47160D01*
X75328Y43522D01*
X75203Y43334D01*
X75043Y43174D01*
X74956Y42966D01*
X74831Y42778D01*
X74787Y42556D01*
X74700Y42348D01*
Y42122D01*
X74656Y41900D01*
X74700Y41678D01*
Y41452D01*
X74787Y41244D01*
X74831Y41022D01*
X74956Y40834D01*
X75043Y40626D01*
X75203Y40466D01*
X75328Y40278D01*
X75516Y40152D01*
X75676Y39992D01*
X75731Y39444D01*
X75584Y39248D01*
X70752D01*
Y30752D01*
X79248D01*
Y36004D01*
X90362Y47118D01*
X90860Y47862D01*
X91034Y48740D01*
Y51441D01*
X91512D01*
Y54527D01*
X100078Y63093D01*
X105000D01*
X105878Y63268D01*
X106005Y63353D01*
X106446Y63117D01*
Y58559D01*
X105969D01*
Y51441D01*
X106446D01*
Y9660D01*
X106621Y8782D01*
X107006Y8205D01*
X106618Y7886D01*
X103554Y10950D01*
Y51441D01*
X104031D01*
Y58559D01*
X98488D01*
Y51441D01*
X98966D01*
Y10000D01*
X99140Y9122D01*
X99638Y8378D01*
X102553Y5462D01*
X102362Y5000D01*
X14860D01*
X13980Y7123D01*
X12694Y9223D01*
X11095Y11095D01*
X9223Y12694D01*
X7123Y13980D01*
X5000Y14860D01*
Y310000D01*
X135000D01*
Y206998D01*
D02*
G37*
G36*
X323625Y265744D02*
X323380Y265378D01*
X323206Y264500D01*
Y229841D01*
X322744Y229650D01*
X313194Y239200D01*
Y240199D01*
X313267Y240269D01*
X313694Y240424D01*
X313725Y240392D01*
X313934Y240306D01*
X314122Y240180D01*
X314344Y240137D01*
X314552Y240050D01*
X314778D01*
X315000Y240006D01*
X315222Y240050D01*
X315448D01*
X315656Y240137D01*
X315878Y240180D01*
X316066Y240306D01*
X316274Y240392D01*
X316434Y240552D01*
X316622Y240678D01*
X316748Y240866D01*
X316908Y241025D01*
X316994Y241234D01*
X317120Y241422D01*
X317163Y241644D01*
X317250Y241852D01*
Y242078D01*
X317294Y242300D01*
Y266244D01*
X317969D01*
X318006Y265760D01*
Y261700D01*
X318050Y261478D01*
Y261252D01*
X318137Y261044D01*
X318180Y260822D01*
X318306Y260634D01*
X318392Y260425D01*
X318552Y260266D01*
X318678Y260078D01*
X318866Y259952D01*
X319025Y259792D01*
X319234Y259706D01*
X319422Y259580D01*
X319644Y259537D01*
X319852Y259450D01*
X320078D01*
X320300Y259406D01*
X320522Y259450D01*
X320748D01*
X320956Y259537D01*
X321178Y259580D01*
X321366Y259706D01*
X321574Y259792D01*
X321734Y259952D01*
X321922Y260078D01*
X322048Y260266D01*
X322207Y260425D01*
X322294Y260634D01*
X322420Y260822D01*
X322463Y261044D01*
X322550Y261252D01*
Y261478D01*
X322594Y261700D01*
Y266069D01*
X322769Y266244D01*
X323358D01*
X323625Y265744D01*
D02*
G37*
G36*
X283106Y272050D02*
Y241175D01*
X283280Y240297D01*
X283644Y239753D01*
X283256Y239434D01*
X275449Y247241D01*
Y253756D01*
X269512D01*
Y246244D01*
X270330D01*
X270361Y246087D01*
X270858Y245343D01*
X287806Y228395D01*
Y178837D01*
X287981Y177959D01*
X288478Y177215D01*
X291706Y173987D01*
X291563Y173768D01*
Y170000D01*
Y166449D01*
X292437Y166683D01*
X293248Y167152D01*
X293911Y167815D01*
X294379Y168626D01*
X294622Y169531D01*
Y170148D01*
X295101Y170413D01*
X295333Y170239D01*
Y168720D01*
X295510Y167831D01*
X296014Y167077D01*
X296768Y166573D01*
X297657Y166396D01*
X300217D01*
X301106Y166573D01*
X301860Y167077D01*
X302364Y167831D01*
X302541Y168720D01*
Y171280D01*
X302364Y172169D01*
X301860Y172923D01*
X301106Y173427D01*
X300217Y173604D01*
X298578D01*
X292394Y179787D01*
Y206061D01*
X298624D01*
Y211206D01*
X299021Y211511D01*
X299523Y211376D01*
X300477D01*
X301349Y211610D01*
X301480Y211515D01*
X301702Y211221D01*
X301623Y211084D01*
X301382Y210185D01*
X308618D01*
X308377Y211084D01*
X307900Y211910D01*
X307294Y212516D01*
Y223300D01*
X307119Y224178D01*
X306622Y224922D01*
X306074Y225471D01*
Y232029D01*
X306536Y232220D01*
X314406Y224350D01*
Y185600D01*
X314580Y184722D01*
X315078Y183978D01*
X324952Y174104D01*
X324745Y173604D01*
X322657D01*
X321768Y173427D01*
X321014Y172923D01*
X320510Y172169D01*
X320333Y171280D01*
Y168720D01*
X320510Y167831D01*
X321014Y167077D01*
X321643Y166657D01*
Y124463D01*
X321817Y123585D01*
X322315Y122841D01*
X333862Y111293D01*
Y107032D01*
X349248D01*
Y112969D01*
X338676D01*
X326231Y125413D01*
Y166657D01*
X326860Y167077D01*
X327364Y167831D01*
X327541Y168720D01*
Y170808D01*
X328041Y171015D01*
X337022Y162034D01*
X337002Y162014D01*
X336570Y161266D01*
X336347Y160432D01*
Y159568D01*
X336570Y158734D01*
X337002Y157986D01*
X337612Y157376D01*
X338360Y156944D01*
X339194Y156720D01*
X340058D01*
X340892Y156944D01*
X341640Y157376D01*
X342250Y157986D01*
X342682Y158734D01*
X342905Y159568D01*
Y160432D01*
X342682Y161266D01*
X342250Y162014D01*
X341920Y162344D01*
Y162674D01*
X341745Y163552D01*
X341248Y164296D01*
X339679Y165866D01*
X339843Y166408D01*
X339952Y166430D01*
X359406Y146976D01*
Y48937D01*
X358906Y48730D01*
X358315Y49321D01*
X357294Y49910D01*
Y134626D01*
X357119Y135504D01*
X356622Y136248D01*
X355322Y137548D01*
X343370Y149500D01*
X340126D01*
Y146256D01*
X351406Y134976D01*
Y105950D01*
X348424Y102969D01*
X342055D01*
Y100000D01*
Y97031D01*
X349248D01*
Y97815D01*
X349578Y97881D01*
X350322Y98378D01*
X352244Y100300D01*
X352706Y100108D01*
Y49910D01*
X351685Y49321D01*
X350679Y48315D01*
X349968Y47084D01*
X349600Y45711D01*
Y45500D01*
X355000D01*
Y44500D01*
X349600D01*
Y44289D01*
X349968Y42916D01*
X350679Y41685D01*
X351685Y40679D01*
X352706Y40090D01*
Y33961D01*
X352667Y33922D01*
X352170Y33178D01*
X351995Y32300D01*
Y25310D01*
X350974Y24720D01*
X349968Y23715D01*
X349258Y22484D01*
X348890Y21111D01*
Y20900D01*
X354289D01*
Y19900D01*
X348890D01*
Y19689D01*
X349258Y18315D01*
X349968Y17084D01*
X350974Y16079D01*
X352205Y15368D01*
X352481Y15294D01*
X352415Y14794D01*
X336163D01*
X336098Y15294D01*
X336373Y15368D01*
X337605Y16079D01*
X338610Y17084D01*
X339321Y18315D01*
X339689Y19689D01*
Y21111D01*
X339321Y22484D01*
X338610Y23715D01*
X337605Y24720D01*
X336373Y25431D01*
X335000Y25799D01*
X333578D01*
X332205Y25431D01*
X330974Y24720D01*
X329968Y23715D01*
X329258Y22484D01*
X328890Y21111D01*
Y19689D01*
X329258Y18315D01*
X329968Y17084D01*
X330974Y16079D01*
X332205Y15368D01*
X332481Y15294D01*
X332415Y14794D01*
X316163D01*
X316098Y15294D01*
X316373Y15368D01*
X317605Y16079D01*
X318610Y17084D01*
X319321Y18315D01*
X319689Y19689D01*
Y21111D01*
X319384Y22250D01*
X331522Y34388D01*
X332019Y35133D01*
X332194Y36010D01*
Y38950D01*
X333150Y39906D01*
X334289Y39600D01*
X335711D01*
X337084Y39968D01*
X338315Y40679D01*
X339321Y41685D01*
X340032Y42916D01*
X340400Y44289D01*
Y45711D01*
X340032Y47084D01*
X339321Y48315D01*
X338315Y49321D01*
X337084Y50032D01*
X335711Y50400D01*
X334289D01*
X332916Y50032D01*
X331685Y49321D01*
X330679Y48315D01*
X329968Y47084D01*
X329600Y45711D01*
Y44289D01*
X329906Y43150D01*
X328278Y41522D01*
X327781Y40778D01*
X327606Y39900D01*
Y36961D01*
X316139Y25494D01*
X315000Y25799D01*
X313578D01*
X312205Y25431D01*
X310974Y24720D01*
X309968Y23715D01*
X309258Y22484D01*
X308890Y21111D01*
Y19689D01*
X309258Y18315D01*
X309968Y17084D01*
X310974Y16079D01*
X312205Y15368D01*
X312481Y15294D01*
X312415Y14794D01*
X300103D01*
X299689Y15000D01*
X299689Y15294D01*
Y25799D01*
X288890D01*
Y15294D01*
X288890Y15000D01*
X288475Y14794D01*
X251892D01*
X251700Y15256D01*
X254822Y18378D01*
X255319Y19122D01*
X255494Y20000D01*
Y39450D01*
X262882Y46838D01*
X263379Y47582D01*
X263554Y48460D01*
Y61441D01*
X264031D01*
Y68146D01*
X265969D01*
Y65500D01*
X271512D01*
Y68559D01*
X271034D01*
Y74050D01*
X271622Y74638D01*
X272119Y75382D01*
X272294Y76260D01*
Y81441D01*
X272772D01*
Y84500D01*
X267228D01*
Y81441D01*
X267706D01*
Y77210D01*
X267118Y76622D01*
X266698Y75994D01*
X266143Y75842D01*
X261662Y80322D01*
X260918Y80819D01*
X260307Y80941D01*
X260357Y81441D01*
X265291D01*
Y88559D01*
X264814D01*
Y121122D01*
X265002Y121313D01*
X265314Y121426D01*
X265382Y121380D01*
X265603Y121336D01*
X265812Y121250D01*
X266038D01*
X266260Y121206D01*
X266481Y121250D01*
X266707D01*
X266916Y121336D01*
X267138Y121380D01*
X267326Y121506D01*
X267534Y121592D01*
X267694Y121752D01*
X267882Y121878D01*
X268007Y122066D01*
X268167Y122225D01*
X268254Y122434D01*
X268379Y122622D01*
X268423Y122844D01*
X268510Y123052D01*
Y123278D01*
X268554Y123500D01*
Y166244D01*
X269228D01*
Y173756D01*
X263291D01*
X262994Y174133D01*
Y183097D01*
X263494Y183262D01*
X265878Y180878D01*
X268378Y178378D01*
X269122Y177881D01*
X270000Y177706D01*
X280113D01*
X287319Y170500D01*
X290563D01*
Y173744D01*
X282685Y181622D01*
X281941Y182120D01*
X281063Y182294D01*
X277391D01*
X277199Y182756D01*
X282821Y188378D01*
X283318Y189122D01*
X283493Y190000D01*
Y219000D01*
X283318Y219878D01*
X282821Y220622D01*
X278294Y225149D01*
Y226244D01*
X278969D01*
Y229500D01*
X276000D01*
X273031D01*
Y226244D01*
X273706D01*
Y224199D01*
X273881Y223321D01*
X274378Y222577D01*
X278905Y218050D01*
Y215556D01*
X278405Y215254D01*
X277699Y215394D01*
X262500D01*
X261622Y215219D01*
X260878Y214722D01*
X260530Y215078D01*
X270142Y224690D01*
X270639Y225434D01*
X270800Y226244D01*
X271488D01*
Y233756D01*
X267430D01*
X267146Y234256D01*
X267294Y235000D01*
Y246244D01*
X267969D01*
Y253756D01*
X267294D01*
Y259050D01*
X274488Y266244D01*
X276709D01*
Y268464D01*
X279822Y271578D01*
X279948Y271766D01*
X280107Y271925D01*
X280194Y272134D01*
X280319Y272322D01*
X280363Y272544D01*
X280450Y272752D01*
Y272978D01*
X280494Y273200D01*
X280450Y273422D01*
Y273648D01*
X280363Y273856D01*
X280319Y274078D01*
X280329Y274120D01*
X280874Y274282D01*
X283106Y272050D01*
D02*
G37*
G36*
X301485Y242034D02*
Y224520D01*
X301660Y223642D01*
X302157Y222898D01*
X302706Y222350D01*
Y218073D01*
X302472Y217975D01*
X302206Y217911D01*
X301399Y218377D01*
X300477Y218624D01*
X299523D01*
X298601Y218377D01*
X297775Y217900D01*
X297100Y217225D01*
X296623Y216399D01*
X296376Y215477D01*
Y214523D01*
X296567Y213809D01*
X296265Y213309D01*
X292394D01*
Y229346D01*
X292219Y230223D01*
X291722Y230968D01*
X283659Y239031D01*
X283978Y239419D01*
X284522Y239055D01*
X285400Y238881D01*
X296675D01*
X297553Y239055D01*
X298297Y239553D01*
X300986Y242241D01*
X301485Y242034D01*
D02*
G37*
G36*
X332706Y260296D02*
Y229160D01*
X332083Y228801D01*
X331756Y228473D01*
X331294Y228665D01*
Y259345D01*
X331821Y259872D01*
X332206Y260448D01*
X332706Y260296D01*
D02*
G37*
G36*
X464592Y242325D02*
X464597Y242206D01*
X444556Y222165D01*
X444094Y222356D01*
Y225050D01*
X461750Y242706D01*
X464476D01*
X464592Y242325D01*
D02*
G37*
G36*
X571106Y230720D02*
Y222384D01*
X570606Y222117D01*
X570602Y222119D01*
X569794Y222280D01*
Y226700D01*
X569619Y227578D01*
X569122Y228322D01*
X563138Y234306D01*
X563232Y234806D01*
X567020D01*
X571106Y230720D01*
D02*
G37*
G36*
X533173Y217394D02*
X527410D01*
X525893Y218910D01*
X525149Y219408D01*
X524271Y219582D01*
X522299D01*
Y222804D01*
X533173D01*
Y217394D01*
D02*
G37*
G36*
X507262Y234306D02*
X504778Y231822D01*
X504281Y231078D01*
X504106Y230200D01*
Y215652D01*
X503606Y215445D01*
X486729Y232322D01*
X485985Y232820D01*
X485107Y232994D01*
X476200D01*
X475322Y232820D01*
X474578Y232322D01*
X471378Y229122D01*
X470881Y228378D01*
X470706Y227500D01*
Y224350D01*
X464050Y217694D01*
X463458D01*
X463177Y218194D01*
X463478Y218714D01*
X463705Y219562D01*
Y220439D01*
X463478Y221286D01*
X463039Y222045D01*
X462419Y222665D01*
X461660Y223104D01*
X460813Y223331D01*
X460728D01*
X460537Y223793D01*
X471550Y234806D01*
X507168D01*
X507262Y234306D01*
D02*
G37*
G36*
X245814Y219058D02*
X242118Y215362D01*
X241794Y214878D01*
X241294Y215029D01*
Y216400D01*
X241250Y216622D01*
Y216848D01*
X241163Y217056D01*
X241120Y217278D01*
X240994Y217466D01*
X240908Y217674D01*
X240748Y217834D01*
X240622Y218022D01*
X240434Y218148D01*
X240275Y218307D01*
X240066Y218394D01*
X239878Y218519D01*
X239656Y218564D01*
X239448Y218650D01*
X239222D01*
X239000Y218694D01*
X238778Y218650D01*
X238552D01*
X238344Y218564D01*
X238122Y218519D01*
X237934Y218394D01*
X237725Y218307D01*
X237566Y218148D01*
X237378Y218022D01*
X237252Y217834D01*
X237092Y217674D01*
X237006Y217466D01*
X236880Y217278D01*
X236837Y217056D01*
X236750Y216848D01*
Y216622D01*
X236706Y216400D01*
Y213756D01*
X233291D01*
Y212294D01*
X207300D01*
X206422Y212120D01*
X205678Y211622D01*
X159656Y165600D01*
X159194Y165792D01*
Y190950D01*
X187650Y219406D01*
X245000D01*
X245567Y219519D01*
X245814Y219058D01*
D02*
G37*
G36*
X265551Y231653D02*
Y226588D01*
X247171Y208207D01*
X246709Y208399D01*
Y213464D01*
X265089Y231845D01*
X265551Y231653D01*
D02*
G37*
G36*
X240772Y210560D02*
Y206244D01*
X244554D01*
X244745Y205782D01*
X242118Y203155D01*
X241621Y202411D01*
X241446Y201533D01*
Y193756D01*
X240772D01*
Y186244D01*
X246709D01*
Y187006D01*
X250849D01*
X251040Y186544D01*
X242118Y177622D01*
X241621Y176878D01*
X241446Y176000D01*
Y173756D01*
X240772D01*
Y166244D01*
X241446D01*
Y159751D01*
X240984Y159560D01*
X234762Y165782D01*
X234953Y166244D01*
X239228D01*
Y173756D01*
X238554D01*
Y178640D01*
X238379Y179518D01*
X237882Y180262D01*
X234294Y183850D01*
Y186244D01*
X239228D01*
Y193756D01*
X238554D01*
Y195000D01*
X238510Y195222D01*
Y195448D01*
X238423Y195656D01*
X238379Y195878D01*
X238254Y196066D01*
X238167Y196274D01*
X238007Y196434D01*
X237882Y196622D01*
X237694Y196748D01*
X237534Y196907D01*
X237326Y196994D01*
X237138Y197119D01*
X236916Y197163D01*
X236707Y197250D01*
X236481D01*
X236260Y197294D01*
X236038Y197250D01*
X235812D01*
X235603Y197163D01*
X235382Y197119D01*
X235194Y196994D01*
X234985Y196907D01*
X234825Y196748D01*
X234794Y196727D01*
X234311Y196932D01*
X234294Y196948D01*
Y200700D01*
X234250Y200922D01*
Y201148D01*
X234163Y201356D01*
X234120Y201578D01*
X233994Y201766D01*
X233908Y201975D01*
X233748Y202134D01*
X233622Y202322D01*
X233434Y202448D01*
X233275Y202607D01*
X233066Y202694D01*
X232878Y202819D01*
X232656Y202864D01*
X232448Y202950D01*
X232222D01*
X232000Y202994D01*
X231778Y202950D01*
X231552D01*
X231344Y202864D01*
X231122Y202819D01*
X230934Y202694D01*
X230726Y202607D01*
X230566Y202448D01*
X230378Y202322D01*
X230252Y202134D01*
X230093Y201975D01*
X230006Y201766D01*
X229880Y201578D01*
X229837Y201356D01*
X229750Y201148D01*
Y200922D01*
X229706Y200700D01*
Y182900D01*
X229880Y182022D01*
X230378Y181278D01*
X233966Y177690D01*
Y173756D01*
X233291D01*
Y167906D01*
X232829Y167715D01*
X232522Y168022D01*
X231778Y168519D01*
X230900Y168694D01*
X207500D01*
X206622Y168519D01*
X205878Y168022D01*
X203378Y165522D01*
X202881Y164778D01*
X202706Y163900D01*
Y158309D01*
X201376D01*
Y151061D01*
X202706D01*
Y130315D01*
X202881Y129437D01*
X203378Y128693D01*
X204000Y128071D01*
X203808Y127609D01*
X200100D01*
X199222Y127434D01*
X198478Y126937D01*
X197980Y126193D01*
X197806Y125315D01*
Y99900D01*
X197980Y99022D01*
X198478Y98278D01*
X206376Y90380D01*
Y89523D01*
X206567Y88809D01*
X206265Y88309D01*
X204620D01*
X172294Y120635D01*
Y130806D01*
X172935Y131175D01*
X173825Y132065D01*
X174454Y133155D01*
X174779Y134371D01*
Y135629D01*
X174454Y136845D01*
X173825Y137935D01*
X172935Y138825D01*
X171845Y139454D01*
X170772Y139741D01*
Y140259D01*
X171845Y140546D01*
X172935Y141175D01*
X173825Y142065D01*
X174454Y143155D01*
X174779Y144371D01*
Y145629D01*
X174454Y146845D01*
X173825Y147935D01*
X172935Y148825D01*
X171845Y149454D01*
X170850Y149721D01*
X170915Y150221D01*
X174779D01*
Y159780D01*
X167530D01*
X167339Y160241D01*
X194803Y187706D01*
X199591D01*
Y185063D01*
X209465D01*
Y194937D01*
X199591D01*
Y192294D01*
X193853D01*
X193469Y192218D01*
X193223Y192678D01*
X208250Y207706D01*
X233291D01*
Y206244D01*
X239228D01*
Y209724D01*
X240272Y210768D01*
X240772Y210560D01*
D02*
G37*
G36*
X132006Y202850D02*
Y201437D01*
X131544Y201246D01*
X121268Y211522D01*
X120524Y212019D01*
X119646Y212194D01*
X111709D01*
Y217806D01*
X117050D01*
X132006Y202850D01*
D02*
G37*
G36*
X555516Y222324D02*
X552315Y219122D01*
X551818Y218378D01*
X551643Y217500D01*
Y168343D01*
X551014Y167923D01*
X550510Y167169D01*
X550333Y166279D01*
Y164761D01*
X550102Y164587D01*
X549622Y164852D01*
Y165469D01*
X549379Y166374D01*
X548911Y167185D01*
X548357Y167739D01*
Y181700D01*
X548182Y182578D01*
X547685Y183322D01*
X546822Y184186D01*
Y196441D01*
X547299D01*
Y199500D01*
X541756D01*
Y196441D01*
X542234D01*
Y183235D01*
X542408Y182358D01*
X542905Y181613D01*
X543769Y180750D01*
Y171192D01*
X543307Y171000D01*
X532685Y181622D01*
X531941Y182120D01*
X531063Y182294D01*
X512692D01*
X512500Y182756D01*
X512567Y182823D01*
X513064Y183567D01*
X513239Y184445D01*
Y190933D01*
X513739Y191085D01*
X514078Y190578D01*
X516278Y188378D01*
X516466Y188252D01*
X516625Y188093D01*
X516834Y188006D01*
X517022Y187881D01*
X517244Y187837D01*
X517452Y187750D01*
X517678D01*
X517900Y187706D01*
X518122Y187750D01*
X518348D01*
X518556Y187837D01*
X518778Y187881D01*
X518966Y188006D01*
X519174Y188093D01*
X519334Y188252D01*
X519522Y188378D01*
X519648Y188566D01*
X519807Y188725D01*
X519894Y188934D01*
X520019Y189122D01*
X520063Y189344D01*
X520150Y189552D01*
Y189778D01*
X520194Y190000D01*
X520150Y190222D01*
Y190448D01*
X520063Y190656D01*
X520019Y190878D01*
X519894Y191066D01*
X519807Y191274D01*
X519648Y191434D01*
X519522Y191622D01*
X517994Y193150D01*
Y196441D01*
X522772D01*
Y203559D01*
X522294D01*
Y205000D01*
X522120Y205878D01*
X521622Y206622D01*
X517212Y211032D01*
X517404Y211494D01*
X521256D01*
X532701Y200049D01*
Y196441D01*
X538244D01*
Y202706D01*
X541756D01*
Y200500D01*
X547299D01*
Y203559D01*
X546822D01*
Y205000D01*
X546647Y205878D01*
X546150Y206622D01*
X545405Y207119D01*
X544528Y207294D01*
X537510D01*
X532460Y212344D01*
X532651Y212806D01*
X545000D01*
X545878Y212981D01*
X546622Y213478D01*
X547119Y214222D01*
X547294Y215100D01*
Y216441D01*
X547772D01*
Y219500D01*
X545000D01*
Y220500D01*
X547772D01*
Y222816D01*
X555302D01*
X555516Y222324D01*
D02*
G37*
G36*
X263032Y209734D02*
Y204244D01*
X263706D01*
Y199950D01*
X259956Y196200D01*
X259494Y196392D01*
Y206850D01*
X262570Y209925D01*
X263032Y209734D01*
D02*
G37*
G36*
X475604Y206707D02*
Y203849D01*
X467711Y195955D01*
X467249Y196147D01*
Y199005D01*
X475142Y206898D01*
X475604Y206707D01*
D02*
G37*
G36*
X255578Y209422D02*
X255081Y208678D01*
X254906Y207800D01*
Y190410D01*
X254560Y190064D01*
X254541Y190060D01*
X254040Y190173D01*
X253998Y190209D01*
X253894Y190366D01*
X253807Y190575D01*
X253648Y190734D01*
X253522Y190922D01*
X253334Y191048D01*
X253174Y191208D01*
X252966Y191294D01*
X252778Y191419D01*
X252556Y191463D01*
X252348Y191550D01*
X252122D01*
X251900Y191594D01*
X246709D01*
Y193756D01*
X246034D01*
Y200582D01*
X255222Y209770D01*
X255578Y209422D01*
D02*
G37*
G36*
X268241Y197404D02*
X268258Y197378D01*
X271380Y194256D01*
X271173Y193756D01*
X269512D01*
Y186244D01*
X273546D01*
X273737Y185782D01*
X272749Y184794D01*
X268450D01*
X267500Y185744D01*
X267707Y186244D01*
X267969D01*
Y189500D01*
X265000D01*
Y190000D01*
X264500D01*
Y194126D01*
X264462Y194218D01*
X267622Y197378D01*
X267821Y197451D01*
X268241Y197404D01*
D02*
G37*
G36*
X483406Y186650D02*
X481030Y184275D01*
X480579Y184396D01*
X480500D01*
Y180000D01*
X480000D01*
Y179500D01*
X475604D01*
Y179421D01*
X475725Y178970D01*
X472178Y175422D01*
X471681Y174678D01*
X471506Y173800D01*
Y154376D01*
X460874Y143744D01*
Y140500D01*
X464118D01*
X475422Y151804D01*
X475919Y152548D01*
X476094Y153426D01*
Y155604D01*
X477706D01*
Y150576D01*
X460460Y133331D01*
X459936D01*
X459088Y133104D01*
X458329Y132665D01*
X457709Y132045D01*
X457270Y131286D01*
X457043Y130438D01*
Y129914D01*
X454956Y127826D01*
X454494Y128018D01*
Y171982D01*
X454956Y172174D01*
X457043Y170086D01*
Y169562D01*
X457270Y168714D01*
X457709Y167955D01*
X458329Y167335D01*
X459088Y166896D01*
X459936Y166669D01*
X460813D01*
X461660Y166896D01*
X462161Y167186D01*
X462661Y166897D01*
Y165531D01*
X460460Y163331D01*
X459936D01*
X459088Y163104D01*
X458329Y162665D01*
X457709Y162045D01*
X457270Y161286D01*
X457043Y160439D01*
Y159562D01*
X457270Y158714D01*
X457709Y157955D01*
X458329Y157335D01*
X459088Y156896D01*
X459936Y156669D01*
X460813D01*
X461660Y156896D01*
X462419Y157335D01*
X463039Y157955D01*
X463478Y158714D01*
X463705Y159562D01*
Y160086D01*
X465699Y162081D01*
X466161Y161889D01*
Y159031D01*
X460460Y153331D01*
X459936D01*
X459088Y153104D01*
X458329Y152665D01*
X457709Y152045D01*
X457270Y151286D01*
X457043Y150438D01*
Y149562D01*
X457270Y148714D01*
X457709Y147955D01*
X458329Y147335D01*
X459088Y146896D01*
X459936Y146669D01*
X460813D01*
X461660Y146896D01*
X462419Y147335D01*
X463039Y147955D01*
X463478Y148714D01*
X463705Y149562D01*
Y150086D01*
X470077Y156459D01*
X470574Y157203D01*
X470749Y158081D01*
Y192505D01*
X478849Y200604D01*
X483406D01*
Y186650D01*
D02*
G37*
G36*
X575206Y213099D02*
Y202500D01*
X575381Y201622D01*
X575878Y200878D01*
X593206Y183550D01*
X593034Y183085D01*
X592993Y183056D01*
X592800Y183094D01*
X592578Y183050D01*
X592352D01*
X592144Y182964D01*
X591922Y182920D01*
X591734Y182794D01*
X591526Y182708D01*
X591366Y182548D01*
X591178Y182422D01*
X591052Y182234D01*
X590893Y182074D01*
X590806Y181866D01*
X590681Y181678D01*
X590636Y181456D01*
X590550Y181248D01*
Y181022D01*
X590506Y180800D01*
Y126450D01*
X553550Y89494D01*
X511950D01*
X510494Y90950D01*
Y98476D01*
X511479D01*
Y97100D01*
X511653Y96222D01*
X512150Y95478D01*
X512895Y94981D01*
X513773Y94806D01*
X530500D01*
X531378Y94981D01*
X532122Y95478D01*
X565622Y128978D01*
X566119Y129722D01*
X566294Y130600D01*
Y212906D01*
X573400D01*
X574278Y213081D01*
X574706Y213367D01*
X575206Y213099D01*
D02*
G37*
G36*
X508378Y204185D02*
X508566Y204059D01*
X508414Y203559D01*
X508173D01*
Y196441D01*
X508651D01*
Y185395D01*
X508378Y185122D01*
X508252Y184934D01*
X508092Y184774D01*
X508006Y184566D01*
X507881Y184378D01*
X507836Y184156D01*
X507750Y183948D01*
Y183722D01*
X507706Y183500D01*
X507750Y183278D01*
Y183052D01*
X507836Y182844D01*
X507846Y182794D01*
X507593Y182376D01*
X507498Y182294D01*
X486192D01*
X486000Y182756D01*
X487322Y184078D01*
X487819Y184822D01*
X487994Y185700D01*
Y219300D01*
X487819Y220178D01*
X487322Y220922D01*
X484275Y223970D01*
X484396Y224421D01*
Y224500D01*
X480500D01*
Y220604D01*
X480579D01*
X481030Y220725D01*
X482609Y219147D01*
X482302Y218747D01*
X481697Y219096D01*
X480579Y219396D01*
X479421D01*
X478303Y219096D01*
X477301Y218517D01*
X476483Y217699D01*
X475904Y216697D01*
X475604Y215579D01*
Y214421D01*
X475725Y213970D01*
X463684Y201928D01*
X463059Y202011D01*
X463039Y202045D01*
X462419Y202665D01*
X461660Y203104D01*
X460813Y203331D01*
X459936D01*
X459088Y203104D01*
X458587Y202814D01*
X458087Y203103D01*
Y206897D01*
X458587Y207186D01*
X459088Y206896D01*
X459936Y206669D01*
X460813D01*
X461660Y206896D01*
X462419Y207335D01*
X463039Y207955D01*
X463478Y208714D01*
X463705Y209561D01*
Y210438D01*
X463478Y211286D01*
X463039Y212045D01*
X462478Y212606D01*
X462520Y212853D01*
X462656Y213106D01*
X465000D01*
X465878Y213281D01*
X466622Y213778D01*
X474622Y221778D01*
X475119Y222522D01*
X475294Y223400D01*
Y223647D01*
X475794Y223713D01*
X475904Y223303D01*
X476483Y222301D01*
X477301Y221483D01*
X478303Y220904D01*
X479421Y220604D01*
X479500D01*
Y225000D01*
X480000D01*
Y225500D01*
X484396D01*
Y225579D01*
X484096Y226697D01*
X483517Y227699D01*
X483272Y227944D01*
X483464Y228406D01*
X484157D01*
X508378Y204185D01*
D02*
G37*
G36*
X323206Y222700D02*
Y184900D01*
X323380Y184022D01*
X323878Y183278D01*
X333378Y173778D01*
X334122Y173281D01*
X335000Y173106D01*
X337446D01*
X337590Y172690D01*
X337594Y172606D01*
X337002Y172014D01*
X336570Y171266D01*
X336347Y170432D01*
Y169905D01*
X335846Y169698D01*
X318994Y186550D01*
Y225300D01*
X318819Y226178D01*
X318415Y226784D01*
X318803Y227102D01*
X323206Y222700D01*
D02*
G37*
G36*
X398340Y176896D02*
X399187Y176669D01*
X399712D01*
X405413Y170969D01*
Y137037D01*
X404913Y136734D01*
X404207Y136875D01*
X401874D01*
X401731Y137199D01*
X401711Y137375D01*
X402291Y137955D01*
X402730Y138714D01*
X402957Y139561D01*
Y140438D01*
X402730Y141286D01*
X402291Y142045D01*
X401671Y142665D01*
X400912Y143104D01*
X400065Y143331D01*
X399187D01*
X398340Y143104D01*
X397794Y142788D01*
X397294Y143050D01*
Y146950D01*
X397794Y147212D01*
X398340Y146896D01*
X399187Y146669D01*
X400065D01*
X400912Y146896D01*
X401671Y147335D01*
X402291Y147955D01*
X402730Y148714D01*
X402957Y149562D01*
Y150438D01*
X402730Y151286D01*
X402291Y152045D01*
X401671Y152665D01*
X400912Y153104D01*
X400065Y153331D01*
X399187D01*
X398340Y153104D01*
X397794Y152788D01*
X397294Y153050D01*
Y156950D01*
X397794Y157212D01*
X398340Y156896D01*
X399187Y156669D01*
X400065D01*
X400912Y156896D01*
X401671Y157335D01*
X402291Y157955D01*
X402730Y158714D01*
X402957Y159562D01*
Y160439D01*
X402730Y161286D01*
X402291Y162045D01*
X401671Y162665D01*
X400912Y163104D01*
X400065Y163331D01*
X399187D01*
X398340Y163104D01*
X397794Y162788D01*
X397294Y163050D01*
Y166950D01*
X397794Y167212D01*
X398340Y166896D01*
X399126Y166686D01*
Y170000D01*
Y173314D01*
X398340Y173104D01*
X397794Y172788D01*
X397294Y173050D01*
Y176950D01*
X397794Y177212D01*
X398340Y176896D01*
D02*
G37*
G36*
X542319Y165500D02*
X546063D01*
Y164500D01*
X542512D01*
X542746Y163626D01*
X543215Y162815D01*
X543274Y162756D01*
X543082Y162294D01*
X515887D01*
X513357Y164824D01*
Y166146D01*
X513933D01*
Y172906D01*
X516067D01*
Y166146D01*
X521807D01*
Y173854D01*
X521231D01*
Y175200D01*
X521057Y176078D01*
X520559Y176822D01*
X519985Y177206D01*
X520136Y177706D01*
X530113D01*
X542319Y165500D01*
D02*
G37*
G36*
X508193Y166146D02*
X508769D01*
Y163874D01*
X508944Y162996D01*
X509118Y162735D01*
X508882Y162294D01*
X484396D01*
Y164396D01*
X476094D01*
Y167032D01*
X476594Y167190D01*
X477301Y166483D01*
X478303Y165904D01*
X479421Y165604D01*
X480579D01*
X481697Y165904D01*
X482699Y166483D01*
X483517Y167301D01*
X484096Y168303D01*
X484396Y169421D01*
Y170579D01*
X484275Y171030D01*
X486150Y172906D01*
X508193D01*
Y166146D01*
D02*
G37*
G36*
X211480Y156515D02*
X211702Y156221D01*
X211623Y156084D01*
X211382Y155185D01*
X215000D01*
Y154185D01*
X211382D01*
X211623Y153286D01*
X212100Y152460D01*
X212706Y151854D01*
Y128387D01*
X212472Y128290D01*
X212206Y128226D01*
X211399Y128692D01*
X210477Y128939D01*
X209620D01*
X207294Y131265D01*
Y151061D01*
X208624D01*
Y156206D01*
X209021Y156510D01*
X209523Y156376D01*
X210477D01*
X211349Y156610D01*
X211480Y156515D01*
D02*
G37*
G36*
X363306Y152650D02*
Y150218D01*
X362844Y150026D01*
X342905Y169965D01*
Y170432D01*
X342682Y171266D01*
X342250Y172014D01*
X341658Y172606D01*
X341662Y172690D01*
X341806Y173106D01*
X342850D01*
X363306Y152650D01*
D02*
G37*
G36*
X373806Y148385D02*
Y135100D01*
X373980Y134222D01*
X374478Y133478D01*
X379578Y128378D01*
X380322Y127881D01*
X381200Y127706D01*
X397210D01*
X397581Y127335D01*
X398340Y126896D01*
X399187Y126669D01*
X400065D01*
X400912Y126896D01*
X401413Y127186D01*
X401913Y126897D01*
Y123103D01*
X401413Y122814D01*
X400912Y123104D01*
X400065Y123331D01*
X399187D01*
X398340Y123104D01*
X397581Y122665D01*
X397210Y122294D01*
X373350D01*
X367894Y127750D01*
Y147189D01*
X368132Y147287D01*
X368394Y147356D01*
X369108Y146944D01*
X369942Y146721D01*
X370806D01*
X371640Y146944D01*
X372388Y147376D01*
X372998Y147986D01*
X373306Y148519D01*
X373806Y148385D01*
D02*
G37*
G36*
X595825Y180831D02*
X595752Y180559D01*
Y179441D01*
X596041Y178360D01*
X596601Y177392D01*
X597392Y176601D01*
X598360Y176041D01*
X599441Y175752D01*
X600559D01*
X600910Y175846D01*
X603806Y172950D01*
Y144839D01*
X595161D01*
X595094Y145311D01*
Y180800D01*
X595066Y180939D01*
X595328Y181038D01*
X595568Y181078D01*
X595825Y180831D01*
D02*
G37*
G36*
X97206Y174950D02*
Y136192D01*
X96744Y136000D01*
X91622Y141122D01*
X90878Y141620D01*
X90000Y141794D01*
X87207D01*
X86843Y142122D01*
Y146622D01*
X86843Y146878D01*
X87207Y147206D01*
X90000D01*
X90222Y147250D01*
X90448D01*
X90656Y147336D01*
X90878Y147380D01*
X91066Y147506D01*
X91274Y147592D01*
X91434Y147752D01*
X91622Y147878D01*
X91748Y148066D01*
X91908Y148225D01*
X91994Y148434D01*
X92119Y148622D01*
X92163Y148844D01*
X92250Y149052D01*
Y149278D01*
X92294Y149500D01*
X92250Y149722D01*
Y149948D01*
X92163Y150156D01*
X92119Y150378D01*
X91994Y150566D01*
X91908Y150775D01*
X91748Y150934D01*
X91622Y151122D01*
X91434Y151248D01*
X91274Y151408D01*
X91066Y151494D01*
X90878Y151620D01*
X90656Y151663D01*
X90448Y151750D01*
X90222D01*
X90000Y151794D01*
X87207D01*
X86843Y152122D01*
X86843Y152378D01*
Y156622D01*
X86843Y156878D01*
X86843Y157378D01*
Y161878D01*
X86843D01*
Y162122D01*
X86843D01*
Y166878D01*
X86843D01*
Y167122D01*
X86843D01*
Y171878D01*
X86843D01*
Y172122D01*
X86843D01*
Y176622D01*
X86843Y176878D01*
X87207Y177206D01*
X94950D01*
X97206Y174950D01*
D02*
G37*
G36*
X483406Y153350D02*
Y133464D01*
X482944Y133272D01*
X482699Y133517D01*
X481697Y134096D01*
X480579Y134396D01*
X479421D01*
X478303Y134096D01*
X477301Y133517D01*
X476483Y132699D01*
X475904Y131697D01*
X475604Y130579D01*
Y129421D01*
X475725Y128970D01*
X463378Y116622D01*
X462881Y115878D01*
X462706Y115000D01*
Y113050D01*
X462206Y112788D01*
X461660Y113104D01*
X460813Y113331D01*
X459936D01*
X459088Y113104D01*
X458494Y112761D01*
X457994Y112988D01*
Y117012D01*
X458494Y117239D01*
X459088Y116896D01*
X459936Y116669D01*
X460813D01*
X461660Y116896D01*
X462419Y117335D01*
X463039Y117955D01*
X463478Y118714D01*
X463705Y119562D01*
Y120439D01*
X463478Y121286D01*
X463039Y122045D01*
X462419Y122665D01*
X461660Y123104D01*
X460813Y123331D01*
X459936D01*
X459088Y123104D01*
X458494Y122761D01*
X457994Y122988D01*
Y124376D01*
X460288Y126669D01*
X460813D01*
X461660Y126896D01*
X462419Y127335D01*
X463039Y127955D01*
X463478Y128714D01*
X463705Y129561D01*
Y130086D01*
X481622Y148004D01*
X482120Y148748D01*
X482294Y149626D01*
Y153808D01*
X482756Y154000D01*
X483406Y153350D01*
D02*
G37*
G36*
X240772Y153284D02*
Y146244D01*
X245706D01*
Y140750D01*
X237750Y132794D01*
X231743D01*
X231557Y133136D01*
X231557Y133294D01*
X231682Y133378D01*
X237882Y139578D01*
X238379Y140322D01*
X238554Y141200D01*
Y146244D01*
X239228D01*
Y153756D01*
X233291D01*
Y146244D01*
X233966D01*
Y142150D01*
X228438Y136622D01*
X228312Y136434D01*
X228152Y136275D01*
X228066Y136066D01*
X227940Y135878D01*
X227896Y135656D01*
X227810Y135448D01*
X227794Y135439D01*
X227294Y135740D01*
Y152200D01*
X227119Y153078D01*
X226622Y153822D01*
X218822Y161622D01*
X218078Y162119D01*
X217200Y162294D01*
X212831D01*
X212225Y162900D01*
X211399Y163377D01*
X210545Y163606D01*
X210611Y164106D01*
X229950D01*
X240772Y153284D01*
D02*
G37*
G36*
X85772Y237420D02*
Y231244D01*
X86446D01*
Y229631D01*
X79638Y222822D01*
X79140Y222078D01*
X78966Y221200D01*
Y218756D01*
X78291D01*
Y211244D01*
X78966D01*
Y209900D01*
X79140Y209022D01*
X79638Y208278D01*
X80382Y207781D01*
X81260Y207606D01*
X118696D01*
X128506Y197796D01*
Y25206D01*
X128006Y25054D01*
X127352Y26033D01*
X126033Y27352D01*
X124483Y28387D01*
X122761Y29101D01*
X120932Y29465D01*
X119068D01*
X117239Y29101D01*
X115517Y28387D01*
X113967Y27352D01*
X112648Y26033D01*
X111613Y24483D01*
X111525Y24271D01*
X111034Y24368D01*
Y51441D01*
X111512D01*
Y58559D01*
X111034D01*
Y63650D01*
X111150Y63765D01*
X111647Y64509D01*
X111822Y65387D01*
Y69915D01*
Y71441D01*
X112299D01*
Y78559D01*
X111822D01*
Y129472D01*
X111647Y130350D01*
X111544Y130505D01*
X111932Y130823D01*
X112478Y130278D01*
X112666Y130152D01*
X112826Y129992D01*
X113034Y129906D01*
X113222Y129780D01*
X113444Y129736D01*
X113652Y129650D01*
X113878D01*
X114100Y129606D01*
X114322Y129650D01*
X114548D01*
X114756Y129736D01*
X114978Y129780D01*
X115166Y129906D01*
X115375Y129992D01*
X115534Y130152D01*
X115722Y130278D01*
X115848Y130466D01*
X116007Y130625D01*
X116094Y130834D01*
X116219Y131022D01*
X116263Y131244D01*
X116350Y131452D01*
Y131678D01*
X116394Y131900D01*
X116860Y132122D01*
X124638D01*
Y136878D01*
X124638D01*
Y137122D01*
X124638D01*
Y141878D01*
X124638D01*
Y142122D01*
X124638D01*
Y146622D01*
X124638Y146878D01*
X124638Y147378D01*
Y151622D01*
X124638Y151878D01*
X124638Y152378D01*
Y156622D01*
X124638Y156878D01*
X124638Y157378D01*
Y161878D01*
X124638D01*
Y162122D01*
X124638D01*
Y166622D01*
X124638Y166878D01*
X124638Y167378D01*
Y171622D01*
X124638Y171878D01*
X124638Y172378D01*
Y176622D01*
X124638Y176878D01*
X124638Y177378D01*
Y181878D01*
X115157D01*
Y177378D01*
X115157Y177122D01*
X115157Y176622D01*
Y172378D01*
X115157Y172122D01*
X114793Y171794D01*
X104307D01*
X103429Y171619D01*
X102685Y171122D01*
X102478Y170915D01*
X102294Y170640D01*
X101794Y170791D01*
Y175900D01*
X101619Y176778D01*
X101122Y177522D01*
X97522Y181122D01*
X96778Y181620D01*
X95900Y181794D01*
X86843D01*
Y181878D01*
X82602D01*
Y179500D01*
X82102D01*
Y179000D01*
X77362D01*
Y177266D01*
X76965Y176940D01*
X76893Y176952D01*
X74422Y179422D01*
X74234Y179548D01*
X74075Y179708D01*
X73866Y179794D01*
X73678Y179920D01*
X73456Y179964D01*
X73248Y180050D01*
X73022D01*
X72800Y180094D01*
X72578Y180050D01*
X72352D01*
X72144Y179964D01*
X72044Y179944D01*
X71669Y180153D01*
X71544Y180268D01*
Y185850D01*
X71369Y186728D01*
X70872Y187472D01*
X65922Y192422D01*
X65734Y192548D01*
X65575Y192708D01*
X65366Y192794D01*
X65178Y192920D01*
X64956Y192964D01*
X64748Y193050D01*
X64522D01*
X64300Y193094D01*
X64078Y193050D01*
X63852D01*
X63644Y192964D01*
X63422Y192920D01*
X63234Y192794D01*
X63025Y192708D01*
X62866Y192548D01*
X62678Y192422D01*
X62552Y192234D01*
X62392Y192075D01*
X62306Y191866D01*
X62181Y191678D01*
X62137Y191456D01*
X62050Y191248D01*
Y191022D01*
X62006Y190800D01*
X62050Y190578D01*
Y190352D01*
X62137Y190144D01*
X62181Y189922D01*
X62306Y189734D01*
X62392Y189525D01*
X62552Y189366D01*
X62678Y189178D01*
X66956Y184900D01*
Y166050D01*
X67131Y165172D01*
X67628Y164428D01*
X74178Y157878D01*
X74922Y157380D01*
X75357Y157294D01*
X75308Y156794D01*
X74100D01*
X73222Y156620D01*
X72478Y156122D01*
X70878Y154522D01*
X70381Y153778D01*
X70206Y152900D01*
Y105800D01*
X70250Y105578D01*
Y105352D01*
X70337Y105144D01*
X70381Y104922D01*
X70506Y104734D01*
X70592Y104525D01*
X70752Y104366D01*
X70878Y104178D01*
X71066Y104052D01*
X71226Y103893D01*
X71434Y103806D01*
X71622Y103681D01*
X71795Y103646D01*
X71862Y103538D01*
X71944Y103088D01*
X71550Y102694D01*
X67750D01*
X59749Y110695D01*
X59957Y111195D01*
X60501D01*
X61469Y111454D01*
X62336Y111955D01*
X63045Y112664D01*
X63546Y113531D01*
X63805Y114499D01*
Y115501D01*
X63546Y116469D01*
X63045Y117336D01*
X62336Y118045D01*
X61469Y118546D01*
X60501Y118805D01*
X59499D01*
X58531Y118546D01*
X57694Y118062D01*
X57431Y118131D01*
X57194Y118229D01*
Y121771D01*
X57431Y121870D01*
X57694Y121938D01*
X58531Y121454D01*
X59499Y121195D01*
X60501D01*
X61469Y121454D01*
X62336Y121955D01*
X63045Y122664D01*
X63546Y123531D01*
X63805Y124499D01*
Y125501D01*
X63546Y126469D01*
X63045Y127336D01*
X62336Y128045D01*
X61469Y128546D01*
X60501Y128805D01*
X59499D01*
X58531Y128546D01*
X57694Y128062D01*
X57431Y128130D01*
X57194Y128229D01*
Y131771D01*
X57431Y131869D01*
X57694Y131938D01*
X58531Y131454D01*
X59499Y131195D01*
X60501D01*
X61469Y131454D01*
X62336Y131955D01*
X63045Y132664D01*
X63546Y133531D01*
X63805Y134499D01*
Y135501D01*
X63546Y136469D01*
X63045Y137336D01*
X62336Y138045D01*
X61469Y138546D01*
X60501Y138805D01*
X59499D01*
X58531Y138546D01*
X57694Y138062D01*
X57431Y138130D01*
X57194Y138229D01*
Y141771D01*
X57431Y141869D01*
X57694Y141938D01*
X58531Y141454D01*
X59499Y141195D01*
X60501D01*
X61469Y141454D01*
X62336Y141955D01*
X63045Y142664D01*
X63546Y143531D01*
X63805Y144499D01*
Y145501D01*
X63546Y146469D01*
X63045Y147336D01*
X62336Y148045D01*
X61469Y148546D01*
X60501Y148805D01*
X59499D01*
X58531Y148546D01*
X57694Y148062D01*
X57431Y148131D01*
X57194Y148229D01*
Y151771D01*
X57431Y151869D01*
X57694Y151938D01*
X58531Y151454D01*
X59499Y151195D01*
X60501D01*
X61469Y151454D01*
X62336Y151955D01*
X63045Y152664D01*
X63546Y153531D01*
X63805Y154499D01*
Y155501D01*
X63546Y156469D01*
X63045Y157336D01*
X62336Y158045D01*
X61469Y158546D01*
X60501Y158805D01*
X59499D01*
X58531Y158546D01*
X57694Y158062D01*
X57431Y158131D01*
X57194Y158229D01*
Y161771D01*
X57431Y161870D01*
X57694Y161938D01*
X58531Y161454D01*
X59499Y161195D01*
X60501D01*
X61469Y161454D01*
X62336Y161955D01*
X63045Y162664D01*
X63546Y163531D01*
X63805Y164499D01*
Y165501D01*
X63546Y166469D01*
X63045Y167336D01*
X62336Y168045D01*
X61469Y168546D01*
X60501Y168805D01*
X59499D01*
X58531Y168546D01*
X57694Y168062D01*
X57431Y168131D01*
X57194Y168229D01*
Y168950D01*
X59452Y171207D01*
X59499Y171195D01*
X60501D01*
X61469Y171454D01*
X62336Y171955D01*
X63045Y172664D01*
X63546Y173531D01*
X63805Y174499D01*
Y175501D01*
X63546Y176469D01*
X63045Y177336D01*
X62336Y178045D01*
X61469Y178546D01*
X60501Y178805D01*
X59499D01*
X58531Y178546D01*
X57664Y178045D01*
X56955Y177336D01*
X56454Y176469D01*
X56195Y175501D01*
Y174499D01*
X56208Y174452D01*
X54156Y172400D01*
X53694Y172592D01*
Y204190D01*
X80748Y231244D01*
X84228D01*
Y236584D01*
X85272Y237627D01*
X85772Y237420D01*
D02*
G37*
G36*
X258406Y186768D02*
Y154765D01*
Y136100D01*
X258450Y135878D01*
Y135652D01*
X258537Y135444D01*
X258580Y135222D01*
X258706Y135034D01*
X258792Y134826D01*
X258952Y134666D01*
X259078Y134478D01*
X259266Y134352D01*
X259425Y134193D01*
X259634Y134106D01*
X259822Y133981D01*
X260044Y133937D01*
X260226Y133861D01*
Y88559D01*
X259748D01*
Y81441D01*
X259748D01*
X259620Y80994D01*
X251640D01*
X251512Y81441D01*
X251512D01*
Y84500D01*
X245969D01*
Y81441D01*
X246446D01*
Y78700D01*
X246621Y77822D01*
X247118Y77078D01*
X247862Y76581D01*
X248740Y76406D01*
X259090D01*
X262300Y73196D01*
X262108Y72734D01*
X247740D01*
X246862Y72560D01*
X246118Y72062D01*
X245621Y71318D01*
X245446Y70440D01*
Y69059D01*
X244969D01*
Y66000D01*
X250512D01*
Y68146D01*
X258488D01*
Y61441D01*
X258966D01*
Y49410D01*
X251578Y42022D01*
X251080Y41278D01*
X250906Y40400D01*
Y27311D01*
X250406Y27237D01*
X249904Y27739D01*
Y36965D01*
X250034Y37618D01*
Y61941D01*
X250512D01*
Y65000D01*
X244969D01*
Y61941D01*
X245446D01*
Y38142D01*
X245316Y37488D01*
Y27739D01*
X244762Y27185D01*
X244294Y26374D01*
X244060Y25500D01*
X247610D01*
Y25000D01*
X248110D01*
Y21449D01*
X248984Y21684D01*
X249796Y22152D01*
X250406Y22762D01*
X250906Y22689D01*
Y20950D01*
X244750Y14794D01*
X242147D01*
X242019Y14999D01*
X241933Y15294D01*
X242007Y15406D01*
X242167Y15566D01*
X242254Y15774D01*
X242379Y15962D01*
X242423Y16184D01*
X242510Y16393D01*
Y16619D01*
X242554Y16840D01*
Y61941D01*
X243031D01*
Y69059D01*
X237488D01*
Y61941D01*
X237966D01*
Y17036D01*
X237474Y16821D01*
X185351Y68944D01*
X185542Y69406D01*
X235000D01*
X235878Y69581D01*
X236622Y70078D01*
X242882Y76338D01*
X243379Y77082D01*
X243554Y77960D01*
Y81441D01*
X244031D01*
Y88559D01*
X240029D01*
X239838Y89021D01*
X242095Y91278D01*
X242592Y92022D01*
X242766Y92900D01*
Y101441D01*
X243244D01*
Y107386D01*
X243706Y107577D01*
X246756Y104527D01*
Y101441D01*
X247234D01*
Y96338D01*
X247118Y96222D01*
X246621Y95478D01*
X246446Y94600D01*
Y88559D01*
X245969D01*
Y85500D01*
X251512D01*
Y88559D01*
X251034D01*
Y93650D01*
X251150Y93765D01*
X251647Y94510D01*
X251822Y95387D01*
Y101441D01*
X252299D01*
Y104500D01*
X249528D01*
Y105000D01*
X249028D01*
Y108744D01*
X236150Y121622D01*
X235405Y122119D01*
X234528Y122294D01*
X217831D01*
X217294Y122831D01*
Y151854D01*
X217900Y152460D01*
X218377Y153286D01*
X218624Y154208D01*
Y154625D01*
X219124Y154832D01*
X222706Y151250D01*
Y133000D01*
X222881Y132122D01*
X223378Y131378D01*
X225878Y128878D01*
X226622Y128381D01*
X227500Y128206D01*
X238700D01*
X239578Y128381D01*
X240322Y128878D01*
X249622Y138178D01*
X250119Y138922D01*
X250294Y139800D01*
Y154250D01*
X250119Y155128D01*
X249622Y155872D01*
X246034Y159460D01*
Y166244D01*
X246709D01*
Y173756D01*
X246034D01*
Y175050D01*
X257944Y186960D01*
X258406Y186768D01*
D02*
G37*
G36*
X603806Y123690D02*
X603344Y123499D01*
X602971Y123872D01*
X601868Y124509D01*
X600637Y124839D01*
X599363D01*
X598132Y124509D01*
X597029Y123872D01*
X596128Y122971D01*
X595491Y121868D01*
X595161Y120637D01*
Y119363D01*
X595491Y118132D01*
X596128Y117029D01*
X597029Y116128D01*
X598132Y115491D01*
X599363Y115161D01*
X600637D01*
X601868Y115491D01*
X602971Y116128D01*
X603344Y116501D01*
X603806Y116310D01*
Y111050D01*
X569650Y76894D01*
X523346D01*
X523155Y77356D01*
X523281Y77482D01*
X523821Y78417D01*
X524100Y79460D01*
Y80540D01*
X523821Y81583D01*
X523281Y82518D01*
X522518Y83281D01*
X521583Y83821D01*
X520540Y84100D01*
X519460D01*
X518417Y83821D01*
X517482Y83281D01*
X516719Y82518D01*
X516179Y81583D01*
X515900Y80540D01*
Y79460D01*
X516179Y78417D01*
X516719Y77482D01*
X516845Y77356D01*
X516654Y76894D01*
X515550D01*
X506994Y85450D01*
Y87308D01*
X507456Y87500D01*
X509378Y85578D01*
X510122Y85080D01*
X511000Y84906D01*
X554500D01*
X555378Y85081D01*
X556122Y85578D01*
X594422Y123878D01*
X594919Y124622D01*
X595094Y125500D01*
Y134689D01*
X595161Y135161D01*
X603806D01*
Y123690D01*
D02*
G37*
G36*
X558822Y217881D02*
X559700Y217706D01*
X560276D01*
X561154Y217881D01*
X561206Y217916D01*
X561706Y217648D01*
Y215200D01*
Y131550D01*
X529757Y99601D01*
X529257Y99808D01*
Y111524D01*
X527294D01*
Y127500D01*
X527119Y128378D01*
X526622Y129122D01*
X524122Y131622D01*
X523378Y132120D01*
X522500Y132294D01*
X521807D01*
Y133854D01*
X521231D01*
Y146146D01*
X521807D01*
Y152706D01*
X543937D01*
X544815Y152881D01*
X545559Y153378D01*
X546057Y154122D01*
X546231Y155000D01*
Y157706D01*
X548937D01*
X549815Y157880D01*
X550559Y158378D01*
X553578Y161396D01*
X555217D01*
X556106Y161573D01*
X556860Y162077D01*
X557364Y162831D01*
X557541Y163721D01*
Y166279D01*
X557364Y167169D01*
X556860Y167923D01*
X556231Y168343D01*
Y216550D01*
X557524Y217843D01*
X557858Y218173D01*
Y218173D01*
X557858Y218173D01*
X558384D01*
X558822Y217881D01*
D02*
G37*
G36*
X212706Y109050D02*
Y93072D01*
X212472Y92975D01*
X212206Y92911D01*
X211399Y93377D01*
X210477Y93624D01*
X209620D01*
X202394Y100850D01*
Y116376D01*
X205380D01*
X212706Y109050D01*
D02*
G37*
G36*
X167065Y131175D02*
X167706Y130806D01*
Y119685D01*
X167880Y118807D01*
X168378Y118063D01*
X201376Y85065D01*
Y81061D01*
X208624D01*
Y86206D01*
X209021Y86511D01*
X209523Y86376D01*
X210477D01*
X211349Y86610D01*
X211480Y86515D01*
X211702Y86221D01*
X211623Y86084D01*
X211376Y85162D01*
Y84208D01*
X211623Y83286D01*
X212100Y82460D01*
X212775Y81785D01*
X213601Y81308D01*
X214523Y81061D01*
X215477D01*
X216399Y81308D01*
X217225Y81785D01*
X217900Y82460D01*
X218377Y83286D01*
X218624Y84208D01*
Y85162D01*
X218377Y86084D01*
X217900Y86910D01*
X217294Y87516D01*
Y110000D01*
X217120Y110878D01*
X216622Y111622D01*
X208624Y119620D01*
Y121521D01*
X209021Y121826D01*
X209523Y121691D01*
X210477D01*
X211349Y121925D01*
X211480Y121830D01*
X211702Y121536D01*
X211623Y121399D01*
X211382Y120500D01*
X215000D01*
Y120000D01*
X215500D01*
Y116382D01*
X216399Y116623D01*
X217225Y117100D01*
X217831Y117706D01*
X233577D01*
X242262Y109021D01*
X242071Y108559D01*
X237701D01*
Y101441D01*
X238178D01*
Y93850D01*
X222622Y78294D01*
X196650D01*
X166194Y108750D01*
Y131393D01*
X166656Y131585D01*
X167065Y131175D01*
D02*
G37*
G36*
X238488Y87018D02*
Y81441D01*
X238966D01*
Y78910D01*
X234050Y73994D01*
X225475D01*
X225311Y74494D01*
X238026Y87209D01*
X238488Y87018D01*
D02*
G37*
G36*
X193962Y74494D02*
X193797Y73994D01*
X185250D01*
X162694Y96550D01*
Y105108D01*
X163156Y105300D01*
X193962Y74494D01*
D02*
G37*
G36*
X453406Y109882D02*
Y47500D01*
X453237Y47294D01*
X402338D01*
X402130Y47794D01*
X402291Y47955D01*
X402730Y48714D01*
X402940Y49500D01*
X399626D01*
Y50000D01*
X399126D01*
Y53314D01*
X398340Y53104D01*
X397794Y52788D01*
X397294Y53050D01*
Y56950D01*
X397794Y57212D01*
X398340Y56896D01*
X399187Y56669D01*
X400065D01*
X400912Y56896D01*
X401671Y57335D01*
X402291Y57955D01*
X402730Y58714D01*
X402957Y59562D01*
Y60086D01*
X452944Y110074D01*
X453406Y109882D01*
D02*
G37*
G36*
X359406Y41063D02*
Y23336D01*
X358906Y23202D01*
X358610Y23715D01*
X357605Y24720D01*
X356583Y25310D01*
Y31350D01*
X356622Y31389D01*
X357119Y32133D01*
X357294Y33011D01*
Y40090D01*
X358315Y40679D01*
X358906Y41270D01*
X359406Y41063D01*
D02*
G37*
G36*
X5734Y11254D02*
X7424Y10219D01*
X8931Y8931D01*
X10219Y7424D01*
X11254Y5734D01*
X11386Y5416D01*
X11109Y5000D01*
X5000D01*
Y11109D01*
X5416Y11386D01*
X5734Y11254D01*
D02*
G37*
%LPC*%
G36*
X335625Y219750D02*
X335500D01*
Y215500D01*
X339750D01*
Y215625D01*
X339426Y216833D01*
X338801Y217917D01*
X337917Y218801D01*
X336833Y219426D01*
X335625Y219750D01*
D02*
G37*
G36*
X365625D02*
X364375D01*
X363167Y219426D01*
X362083Y218801D01*
X361199Y217917D01*
X360574Y216833D01*
X360250Y215625D01*
Y214375D01*
X360574Y213167D01*
X361199Y212083D01*
X362083Y211199D01*
X363167Y210574D01*
X364375Y210250D01*
X365625D01*
X366833Y210574D01*
X367917Y211199D01*
X368801Y212083D01*
X369426Y213167D01*
X369750Y214375D01*
Y215625D01*
X369426Y216833D01*
X368801Y217917D01*
X367917Y218801D01*
X366833Y219426D01*
X365625Y219750D01*
D02*
G37*
G36*
X339750Y214500D02*
X335500D01*
Y210250D01*
X335625D01*
X336833Y210574D01*
X337917Y211199D01*
X338801Y212083D01*
X339426Y213167D01*
X339750Y214375D01*
Y214500D01*
D02*
G37*
G36*
X243240Y293756D02*
X240772D01*
Y290500D01*
X243240D01*
Y293756D01*
D02*
G37*
G36*
X610932Y309465D02*
X609068D01*
X607239Y309101D01*
X605517Y308387D01*
X603967Y307352D01*
X602648Y306033D01*
X601613Y304483D01*
X600899Y302761D01*
X600535Y300932D01*
Y299068D01*
X600899Y297239D01*
X601613Y295517D01*
X602648Y293967D01*
X603967Y292648D01*
X605517Y291613D01*
X607239Y290899D01*
X609068Y290535D01*
X610932D01*
X612761Y290899D01*
X614483Y291613D01*
X616033Y292648D01*
X617352Y293967D01*
X618387Y295517D01*
X619101Y297239D01*
X619465Y299068D01*
Y300932D01*
X619101Y302761D01*
X618387Y304483D01*
X617352Y306033D01*
X616033Y307352D01*
X614483Y308387D01*
X612761Y309101D01*
X610932Y309465D01*
D02*
G37*
G36*
X155932D02*
X154068D01*
X152239Y309101D01*
X150517Y308387D01*
X148967Y307352D01*
X147648Y306033D01*
X146613Y304483D01*
X145899Y302761D01*
X145535Y300932D01*
Y299068D01*
X145899Y297239D01*
X146613Y295517D01*
X147648Y293967D01*
X148967Y292648D01*
X150517Y291613D01*
X152239Y290899D01*
X154068Y290535D01*
X155932D01*
X157761Y290899D01*
X159483Y291613D01*
X161033Y292648D01*
X162352Y293967D01*
X163387Y295517D01*
X164101Y297239D01*
X164465Y299068D01*
Y300932D01*
X164101Y302761D01*
X163387Y304483D01*
X162352Y306033D01*
X161033Y307352D01*
X159483Y308387D01*
X157761Y309101D01*
X155932Y309465D01*
D02*
G37*
G36*
X539839Y294839D02*
X535500D01*
Y290500D01*
X539839D01*
Y294839D01*
D02*
G37*
G36*
X296980Y293756D02*
X294512D01*
Y290500D01*
X296980D01*
Y293756D01*
D02*
G37*
G36*
X534500Y294839D02*
X530161D01*
Y290500D01*
X534500D01*
Y294839D01*
D02*
G37*
G36*
X539839Y289500D02*
X535500D01*
Y285161D01*
X539839D01*
Y289500D01*
D02*
G37*
G36*
X534500D02*
X530161D01*
Y285161D01*
X534500D01*
Y289500D01*
D02*
G37*
G36*
X515637Y294839D02*
X514363D01*
X513132Y294509D01*
X512029Y293872D01*
X511128Y292971D01*
X510491Y291868D01*
X510161Y290637D01*
Y289363D01*
X510491Y288132D01*
X511128Y287029D01*
X512029Y286128D01*
X513132Y285491D01*
X514363Y285161D01*
X515637D01*
X516868Y285491D01*
X517971Y286128D01*
X518872Y287029D01*
X519509Y288132D01*
X519839Y289363D01*
Y290637D01*
X519509Y291868D01*
X518872Y292971D01*
X517971Y293872D01*
X516868Y294509D01*
X515637Y294839D01*
D02*
G37*
G36*
X205178Y294701D02*
X203878D01*
X202622Y294364D01*
X201496Y293714D01*
X200577Y292795D01*
X199927Y291669D01*
X199591Y290414D01*
Y289114D01*
X199927Y287858D01*
X200577Y286732D01*
X201496Y285813D01*
X202622Y285163D01*
X203878Y284827D01*
X205178D01*
X206433Y285163D01*
X207559Y285813D01*
X208478Y286732D01*
X209128Y287858D01*
X209465Y289114D01*
Y290414D01*
X209128Y291669D01*
X208478Y292795D01*
X207559Y293714D01*
X206433Y294364D01*
X205178Y294701D01*
D02*
G37*
G36*
X460715Y295429D02*
X459285D01*
X457904Y295059D01*
X456666Y294344D01*
X455656Y293334D01*
X454941Y292096D01*
X454571Y290715D01*
Y289285D01*
X454941Y287904D01*
X455656Y286666D01*
X456666Y285656D01*
X457904Y284941D01*
X459285Y284571D01*
X460715D01*
X462096Y284941D01*
X463334Y285656D01*
X464344Y286666D01*
X465059Y287904D01*
X465429Y289285D01*
Y290715D01*
X465059Y292096D01*
X464344Y293334D01*
X463334Y294344D01*
X462096Y295059D01*
X460715Y295429D01*
D02*
G37*
G36*
X405715D02*
X404285D01*
X402904Y295059D01*
X401666Y294344D01*
X400656Y293334D01*
X399941Y292096D01*
X399571Y290715D01*
Y289285D01*
X399941Y287904D01*
X400656Y286666D01*
X401666Y285656D01*
X402904Y284941D01*
X404285Y284571D01*
X405715D01*
X407096Y284941D01*
X408334Y285656D01*
X409344Y286666D01*
X410059Y287904D01*
X410429Y289285D01*
Y290715D01*
X410059Y292096D01*
X409344Y293334D01*
X408334Y294344D01*
X407096Y295059D01*
X405715Y295429D01*
D02*
G37*
G36*
X427215Y295457D02*
X422785D01*
X421946Y295346D01*
X421164Y295023D01*
X420493Y294507D01*
X419978Y293836D01*
X419654Y293054D01*
X419543Y292215D01*
Y287785D01*
X419654Y286946D01*
X419978Y286164D01*
X420493Y285493D01*
X421164Y284978D01*
X421946Y284654D01*
X422785Y284543D01*
X427215D01*
X428054Y284654D01*
X428836Y284978D01*
X429507Y285493D01*
X430022Y286164D01*
X430346Y286946D01*
X430457Y287785D01*
Y292215D01*
X430346Y293054D01*
X430022Y293836D01*
X429507Y294507D01*
X428836Y295023D01*
X428054Y295346D01*
X427215Y295457D01*
D02*
G37*
G36*
X300449Y269500D02*
X297980D01*
Y266244D01*
X300449D01*
Y269500D01*
D02*
G37*
G36*
X296980D02*
X294512D01*
Y266244D01*
X296980D01*
Y269500D01*
D02*
G37*
G36*
X175650Y294701D02*
X174350D01*
X173094Y294364D01*
X171969Y293714D01*
X171049Y292795D01*
X170399Y291669D01*
X170063Y290414D01*
Y289114D01*
X170399Y287858D01*
X171049Y286732D01*
X171969Y285813D01*
X173094Y285163D01*
X174350Y284827D01*
X175650D01*
X176472Y285047D01*
X202234Y259286D01*
Y254455D01*
X201496Y254029D01*
X200577Y253110D01*
X199927Y251984D01*
X199591Y250729D01*
Y249429D01*
X199927Y248173D01*
X200577Y247047D01*
X201496Y246128D01*
X202622Y245478D01*
X203878Y245142D01*
X205178D01*
X206433Y245478D01*
X207559Y246128D01*
X208478Y247047D01*
X209128Y248173D01*
X209465Y249429D01*
Y250729D01*
X209128Y251984D01*
X208478Y253110D01*
X207559Y254029D01*
X206822Y254455D01*
Y260236D01*
X206647Y261114D01*
X206150Y261858D01*
X203395Y264614D01*
X203644Y265047D01*
X203878Y264984D01*
X205178D01*
X206433Y265321D01*
X207559Y265971D01*
X208478Y266890D01*
X209128Y268016D01*
X209465Y269271D01*
Y270571D01*
X209128Y271827D01*
X208478Y272953D01*
X207559Y273872D01*
X206433Y274522D01*
X205178Y274858D01*
X203878D01*
X202622Y274522D01*
X201496Y273872D01*
X200577Y272953D01*
X199927Y271827D01*
X199591Y270571D01*
Y269271D01*
X199653Y269038D01*
X199220Y268788D01*
X179717Y288292D01*
X179937Y289114D01*
Y290414D01*
X179601Y291669D01*
X178951Y292795D01*
X178031Y293714D01*
X176906Y294364D01*
X175650Y294701D01*
D02*
G37*
G36*
Y274858D02*
X174350D01*
X173094Y274522D01*
X171969Y273872D01*
X171049Y272953D01*
X170399Y271827D01*
X170063Y270571D01*
Y269271D01*
X170399Y268016D01*
X171049Y266890D01*
X171969Y265971D01*
X173094Y265321D01*
X174350Y264984D01*
X175650D01*
X176906Y265321D01*
X178031Y265971D01*
X178951Y266890D01*
X179601Y268016D01*
X179937Y269271D01*
Y270571D01*
X179601Y271827D01*
X178951Y272953D01*
X178031Y273872D01*
X176906Y274522D01*
X175650Y274858D01*
D02*
G37*
G36*
Y255016D02*
X174350D01*
X173094Y254679D01*
X171969Y254029D01*
X171049Y253110D01*
X170399Y251984D01*
X170063Y250729D01*
Y249429D01*
X170399Y248173D01*
X171049Y247047D01*
X171969Y246128D01*
X173094Y245478D01*
X174350Y245142D01*
X175650D01*
X176906Y245478D01*
X178031Y246128D01*
X178951Y247047D01*
X179601Y248173D01*
X179937Y249429D01*
Y250729D01*
X179601Y251984D01*
X178951Y253110D01*
X178031Y254029D01*
X176906Y254679D01*
X175650Y255016D01*
D02*
G37*
G36*
X600559Y224248D02*
X600500D01*
Y220500D01*
X604248D01*
Y220559D01*
X603959Y221640D01*
X603399Y222608D01*
X602608Y223399D01*
X601640Y223958D01*
X600559Y224248D01*
D02*
G37*
G36*
X402957Y223331D02*
X396295D01*
Y216669D01*
X402957D01*
Y223331D01*
D02*
G37*
G36*
X610559Y224248D02*
X609441D01*
X608360Y223958D01*
X607392Y223399D01*
X606601Y222608D01*
X606041Y221640D01*
X605752Y220559D01*
Y219441D01*
X606041Y218360D01*
X606601Y217392D01*
X607392Y216601D01*
X608360Y216041D01*
X609441Y215752D01*
X610559D01*
X611640Y216041D01*
X612608Y216601D01*
X613399Y217392D01*
X613959Y218360D01*
X614248Y219441D01*
Y220559D01*
X613959Y221640D01*
X613399Y222608D01*
X612608Y223399D01*
X611640Y223958D01*
X610559Y224248D01*
D02*
G37*
G36*
X604248Y219500D02*
X600500D01*
Y215752D01*
X600559D01*
X601640Y216041D01*
X602608Y216601D01*
X603399Y217392D01*
X603959Y218360D01*
X604248Y219441D01*
Y219500D01*
D02*
G37*
G36*
X599500D02*
X595752D01*
Y219441D01*
X596041Y218360D01*
X596601Y217392D01*
X597392Y216601D01*
X598360Y216041D01*
X599441Y215752D01*
X599500D01*
Y219500D01*
D02*
G37*
G36*
X610559Y214248D02*
X609441D01*
X608360Y213959D01*
X607392Y213399D01*
X606601Y212608D01*
X606041Y211640D01*
X605752Y210559D01*
Y209441D01*
X606041Y208360D01*
X606601Y207392D01*
X607392Y206601D01*
X608360Y206042D01*
X609441Y205752D01*
X610559D01*
X611640Y206042D01*
X612608Y206601D01*
X613399Y207392D01*
X613959Y208360D01*
X614248Y209441D01*
Y210559D01*
X613959Y211640D01*
X613399Y212608D01*
X612608Y213399D01*
X611640Y213959D01*
X610559Y214248D01*
D02*
G37*
G36*
X600559D02*
X599441D01*
X598360Y213959D01*
X597392Y213399D01*
X596601Y212608D01*
X596041Y211640D01*
X595752Y210559D01*
Y209441D01*
X596041Y208360D01*
X596601Y207392D01*
X597392Y206601D01*
X598360Y206042D01*
X599441Y205752D01*
X600559D01*
X601640Y206042D01*
X602608Y206601D01*
X603399Y207392D01*
X603959Y208360D01*
X604248Y209441D01*
Y210559D01*
X603959Y211640D01*
X603399Y212608D01*
X602608Y213399D01*
X601640Y213959D01*
X600559Y214248D01*
D02*
G37*
G36*
X610559Y204248D02*
X609441D01*
X608360Y203959D01*
X607392Y203399D01*
X606601Y202608D01*
X606041Y201640D01*
X605752Y200559D01*
Y199441D01*
X606041Y198360D01*
X606601Y197392D01*
X607392Y196601D01*
X608360Y196042D01*
X609441Y195752D01*
X610559D01*
X611640Y196042D01*
X612608Y196601D01*
X613399Y197392D01*
X613959Y198360D01*
X614248Y199441D01*
Y200559D01*
X613959Y201640D01*
X613399Y202608D01*
X612608Y203399D01*
X611640Y203959D01*
X610559Y204248D01*
D02*
G37*
G36*
X600559D02*
X599441D01*
X598360Y203959D01*
X597392Y203399D01*
X596601Y202608D01*
X596041Y201640D01*
X595752Y200559D01*
Y199441D01*
X596041Y198360D01*
X596601Y197392D01*
X597392Y196601D01*
X598360Y196042D01*
X599441Y195752D01*
X600559D01*
X601640Y196042D01*
X602608Y196601D01*
X603399Y197392D01*
X603959Y198360D01*
X604248Y199441D01*
Y200559D01*
X603959Y201640D01*
X603399Y202608D01*
X602608Y203399D01*
X601640Y203959D01*
X600559Y204248D01*
D02*
G37*
G36*
X610559Y194248D02*
X609441D01*
X608360Y193958D01*
X607392Y193399D01*
X606601Y192608D01*
X606041Y191640D01*
X605752Y190559D01*
Y189441D01*
X606041Y188360D01*
X606601Y187392D01*
X607392Y186601D01*
X608360Y186041D01*
X609441Y185752D01*
X610559D01*
X611640Y186041D01*
X612608Y186601D01*
X613399Y187392D01*
X613959Y188360D01*
X614248Y189441D01*
Y190559D01*
X613959Y191640D01*
X613399Y192608D01*
X612608Y193399D01*
X611640Y193958D01*
X610559Y194248D01*
D02*
G37*
G36*
X600559D02*
X599441D01*
X598360Y193958D01*
X597392Y193399D01*
X596601Y192608D01*
X596041Y191640D01*
X595752Y190559D01*
Y189441D01*
X596041Y188360D01*
X596601Y187392D01*
X597392Y186601D01*
X598360Y186041D01*
X599441Y185752D01*
X600559D01*
X601640Y186041D01*
X602608Y186601D01*
X603399Y187392D01*
X603959Y188360D01*
X604248Y189441D01*
Y190559D01*
X603959Y191640D01*
X603399Y192608D01*
X602608Y193399D01*
X601640Y193958D01*
X600559Y194248D01*
D02*
G37*
G36*
X479500Y114396D02*
X479421D01*
X478303Y114096D01*
X477301Y113517D01*
X476483Y112699D01*
X475904Y111697D01*
X475604Y110579D01*
Y110500D01*
X479500D01*
Y114396D01*
D02*
G37*
G36*
X384396D02*
X375604D01*
Y105604D01*
X384396D01*
Y114396D01*
D02*
G37*
G36*
X380579Y104396D02*
X379421D01*
X378303Y104096D01*
X377301Y103517D01*
X376483Y102699D01*
X375904Y101697D01*
X375604Y100579D01*
Y99421D01*
X375904Y98303D01*
X376483Y97301D01*
X377301Y96483D01*
X378303Y95904D01*
X379421Y95604D01*
X380579D01*
X381697Y95904D01*
X382699Y96483D01*
X383517Y97301D01*
X384096Y98303D01*
X384396Y99421D01*
Y100579D01*
X384096Y101697D01*
X383517Y102699D01*
X382699Y103517D01*
X381697Y104096D01*
X380579Y104396D01*
D02*
G37*
G36*
Y94396D02*
X379421D01*
X378303Y94096D01*
X377301Y93517D01*
X376483Y92699D01*
X375904Y91697D01*
X375604Y90579D01*
Y89421D01*
X375904Y88303D01*
X376483Y87301D01*
X377301Y86483D01*
X378303Y85904D01*
X379421Y85604D01*
X380579D01*
X381697Y85904D01*
X382699Y86483D01*
X383517Y87301D01*
X384096Y88303D01*
X384396Y89421D01*
Y90579D01*
X384096Y91697D01*
X383517Y92699D01*
X382699Y93517D01*
X381697Y94096D01*
X380579Y94396D01*
D02*
G37*
G36*
Y84396D02*
X379421D01*
X378303Y84096D01*
X377301Y83517D01*
X376483Y82699D01*
X375904Y81697D01*
X375604Y80579D01*
Y79421D01*
X375904Y78303D01*
X376483Y77301D01*
X377301Y76483D01*
X378303Y75904D01*
X379421Y75604D01*
X380579D01*
X381697Y75904D01*
X382699Y76483D01*
X383517Y77301D01*
X384096Y78303D01*
X384396Y79421D01*
Y80579D01*
X384096Y81697D01*
X383517Y82699D01*
X382699Y83517D01*
X381697Y84096D01*
X380579Y84396D01*
D02*
G37*
G36*
X480579Y74396D02*
X480500D01*
Y70500D01*
X484396D01*
Y70579D01*
X484096Y71697D01*
X483517Y72699D01*
X482699Y73517D01*
X481697Y74096D01*
X480579Y74396D01*
D02*
G37*
G36*
X484396Y69500D02*
X480500D01*
Y65604D01*
X480579D01*
X481697Y65904D01*
X482699Y66483D01*
X483517Y67301D01*
X484096Y68303D01*
X484396Y69421D01*
Y69500D01*
D02*
G37*
G36*
X479500D02*
X475604D01*
Y69421D01*
X475904Y68303D01*
X476483Y67301D01*
X477301Y66483D01*
X478303Y65904D01*
X479421Y65604D01*
X479500D01*
Y69500D01*
D02*
G37*
G36*
X380579Y74396D02*
X379421D01*
X378303Y74096D01*
X377301Y73517D01*
X376483Y72699D01*
X375904Y71697D01*
X375604Y70579D01*
Y69421D01*
X375904Y68303D01*
X376483Y67301D01*
X377301Y66483D01*
X378303Y65904D01*
X379421Y65604D01*
X380579D01*
X381697Y65904D01*
X382699Y66483D01*
X383517Y67301D01*
X384096Y68303D01*
X384396Y69421D01*
Y70579D01*
X384096Y71697D01*
X383517Y72699D01*
X382699Y73517D01*
X381697Y74096D01*
X380579Y74396D01*
D02*
G37*
G36*
X557189Y60248D02*
X557130D01*
Y56500D01*
X560878D01*
Y56559D01*
X560589Y57640D01*
X560029Y58608D01*
X559238Y59399D01*
X558270Y59958D01*
X557189Y60248D01*
D02*
G37*
G36*
X556130D02*
X556071D01*
X554990Y59958D01*
X554022Y59399D01*
X553231Y58608D01*
X552671Y57640D01*
X552382Y56559D01*
Y56500D01*
X556130D01*
Y60248D01*
D02*
G37*
G36*
X490579Y64396D02*
X489421D01*
X488303Y64096D01*
X487301Y63517D01*
X486483Y62699D01*
X485904Y61697D01*
X485604Y60579D01*
Y59421D01*
X485904Y58303D01*
X486483Y57301D01*
X487301Y56483D01*
X488303Y55904D01*
X489421Y55604D01*
X490579D01*
X491697Y55904D01*
X492699Y56483D01*
X493517Y57301D01*
X494096Y58303D01*
X494396Y59421D01*
Y60579D01*
X494096Y61697D01*
X493517Y62699D01*
X492699Y63517D01*
X491697Y64096D01*
X490579Y64396D01*
D02*
G37*
G36*
X480579D02*
X479421D01*
X478303Y64096D01*
X477301Y63517D01*
X476483Y62699D01*
X475904Y61697D01*
X475604Y60579D01*
Y59421D01*
X475904Y58303D01*
X476483Y57301D01*
X477301Y56483D01*
X478303Y55904D01*
X479421Y55604D01*
X480579D01*
X481697Y55904D01*
X482699Y56483D01*
X483517Y57301D01*
X484096Y58303D01*
X484396Y59421D01*
Y60579D01*
X484096Y61697D01*
X483517Y62699D01*
X482699Y63517D01*
X481697Y64096D01*
X480579Y64396D01*
D02*
G37*
G36*
X560878Y55500D02*
X557130D01*
Y51752D01*
X557189D01*
X558270Y52042D01*
X559238Y52601D01*
X560029Y53392D01*
X560589Y54360D01*
X560878Y55441D01*
Y55500D01*
D02*
G37*
G36*
X556130D02*
X552382D01*
Y55441D01*
X552671Y54360D01*
X553231Y53392D01*
X554022Y52601D01*
X554990Y52042D01*
X556071Y51752D01*
X556130D01*
Y55500D01*
D02*
G37*
G36*
X597624Y60271D02*
X594376D01*
X593691Y60180D01*
X593053Y59916D01*
X592505Y59496D01*
X592084Y58947D01*
X591819Y58309D01*
X591729Y57624D01*
Y54376D01*
X591819Y53691D01*
X592084Y53053D01*
X592505Y52504D01*
X593053Y52084D01*
X593691Y51819D01*
X594376Y51729D01*
X597624D01*
X598309Y51819D01*
X598947Y52084D01*
X599496Y52504D01*
X599916Y53053D01*
X600180Y53691D01*
X600271Y54376D01*
Y57624D01*
X600180Y58309D01*
X599916Y58947D01*
X599496Y59496D01*
X598947Y59916D01*
X598309Y60180D01*
X597624Y60271D01*
D02*
G37*
G36*
X494396Y54396D02*
X485604D01*
Y45604D01*
X494396D01*
Y54396D01*
D02*
G37*
G36*
X460813Y33331D02*
X459936D01*
X459088Y33104D01*
X458329Y32665D01*
X457709Y32045D01*
X457270Y31286D01*
X457043Y30439D01*
Y29561D01*
X457270Y28714D01*
X457709Y27955D01*
X458329Y27335D01*
X459088Y26896D01*
X459936Y26669D01*
X460813D01*
X461660Y26896D01*
X462419Y27335D01*
X463039Y27955D01*
X463478Y28714D01*
X463705Y29561D01*
Y30439D01*
X463478Y31286D01*
X463039Y32045D01*
X462419Y32665D01*
X461660Y33104D01*
X460813Y33331D01*
D02*
G37*
G36*
X400065D02*
X399187D01*
X398340Y33104D01*
X397581Y32665D01*
X396961Y32045D01*
X396522Y31286D01*
X396295Y30439D01*
Y29561D01*
X396522Y28714D01*
X396961Y27955D01*
X397581Y27335D01*
X398340Y26896D01*
X399187Y26669D01*
X400065D01*
X400912Y26896D01*
X401671Y27335D01*
X402291Y27955D01*
X402730Y28714D01*
X402957Y29561D01*
Y30439D01*
X402730Y31286D01*
X402291Y32045D01*
X401671Y32665D01*
X400912Y33104D01*
X400065Y33331D01*
D02*
G37*
G36*
X504396Y29396D02*
X495604D01*
Y20604D01*
X504396D01*
Y29396D01*
D02*
G37*
G36*
X490579D02*
X489421D01*
X488303Y29096D01*
X487301Y28517D01*
X486483Y27699D01*
X485904Y26697D01*
X485604Y25579D01*
Y24421D01*
X485904Y23303D01*
X486483Y22301D01*
X487301Y21483D01*
X488303Y20904D01*
X489421Y20604D01*
X490579D01*
X491697Y20904D01*
X492699Y21483D01*
X493517Y22301D01*
X494096Y23303D01*
X494396Y24421D01*
Y25579D01*
X494096Y26697D01*
X493517Y27699D01*
X492699Y28517D01*
X491697Y29096D01*
X490579Y29396D01*
D02*
G37*
G36*
X524100Y28589D02*
X515900D01*
Y20388D01*
X524100D01*
Y28589D01*
D02*
G37*
G36*
X155932Y29465D02*
X154068D01*
X152239Y29101D01*
X150517Y28387D01*
X148967Y27352D01*
X147648Y26033D01*
X146613Y24483D01*
X145899Y22761D01*
X145535Y20932D01*
Y19068D01*
X145899Y17239D01*
X146613Y15517D01*
X147648Y13967D01*
X148967Y12648D01*
X150517Y11613D01*
X152239Y10899D01*
X154068Y10535D01*
X155932D01*
X157761Y10899D01*
X159483Y11613D01*
X161033Y12648D01*
X162352Y13967D01*
X163387Y15517D01*
X164101Y17239D01*
X164465Y19068D01*
Y20932D01*
X164101Y22761D01*
X163387Y24483D01*
X162352Y26033D01*
X161033Y27352D01*
X159483Y28387D01*
X157761Y29101D01*
X155932Y29465D01*
D02*
G37*
G36*
X30755Y307102D02*
X30657D01*
Y303059D01*
X34701D01*
Y303157D01*
X34391Y304313D01*
X33793Y305349D01*
X32947Y306194D01*
X31911Y306793D01*
X30755Y307102D01*
D02*
G37*
G36*
X29657D02*
X29559D01*
X28404Y306793D01*
X27368Y306194D01*
X26522Y305349D01*
X25924Y304313D01*
X25614Y303157D01*
Y303059D01*
X29657D01*
Y307102D01*
D02*
G37*
G36*
X120932Y309465D02*
X119068D01*
X117239Y309101D01*
X115517Y308387D01*
X113967Y307352D01*
X112648Y306033D01*
X111613Y304483D01*
X110899Y302761D01*
X110535Y300932D01*
Y299068D01*
X110899Y297239D01*
X111613Y295517D01*
X112648Y293967D01*
X113967Y292648D01*
X115517Y291613D01*
X117239Y290899D01*
X119068Y290535D01*
X120932D01*
X122761Y290899D01*
X124483Y291613D01*
X126033Y292648D01*
X127352Y293967D01*
X128387Y295517D01*
X129101Y297239D01*
X129465Y299068D01*
Y300932D01*
X129101Y302761D01*
X128387Y304483D01*
X127352Y306033D01*
X126033Y307352D01*
X124483Y308387D01*
X122761Y309101D01*
X120932Y309465D01*
D02*
G37*
G36*
X34701Y302059D02*
X25614D01*
Y301961D01*
X25924Y300805D01*
X26522Y299769D01*
X27368Y298923D01*
X27863Y298637D01*
Y279666D01*
X27363Y279546D01*
X26889Y280476D01*
X25923Y281807D01*
X24760Y282970D01*
X23429Y283937D01*
X21964Y284683D01*
X20400Y285191D01*
X18775Y285449D01*
X17131D01*
X15506Y285191D01*
X13942Y284683D01*
X12476Y283937D01*
X11146Y282970D01*
X9983Y281807D01*
X9016Y280476D01*
X8269Y279011D01*
X7761Y277447D01*
X7504Y275822D01*
Y274178D01*
X7761Y272553D01*
X8269Y270989D01*
X9016Y269524D01*
X9983Y268193D01*
X11146Y267030D01*
X12476Y266063D01*
X13942Y265317D01*
X15506Y264809D01*
X17131Y264551D01*
X18775D01*
X20400Y264809D01*
X21964Y265317D01*
X23429Y266063D01*
X24760Y267030D01*
X25923Y268193D01*
X26889Y269524D01*
X27363Y270454D01*
X27863Y270334D01*
Y261408D01*
X13278Y246822D01*
X12780Y246078D01*
X12606Y245200D01*
Y45100D01*
X12780Y44222D01*
X13278Y43478D01*
X30846Y25910D01*
X30752Y25559D01*
Y25500D01*
X34500D01*
Y29248D01*
X34441D01*
X34090Y29154D01*
X17194Y46050D01*
Y111771D01*
X17431Y111870D01*
X17694Y111938D01*
X18531Y111454D01*
X19499Y111195D01*
X20501D01*
X21469Y111454D01*
X22336Y111955D01*
X23045Y112664D01*
X23546Y113531D01*
X23805Y114499D01*
Y115501D01*
X23546Y116469D01*
X23045Y117336D01*
X22336Y118045D01*
X21469Y118546D01*
X20501Y118805D01*
X19499D01*
X18531Y118546D01*
X17694Y118062D01*
X17431Y118131D01*
X17194Y118229D01*
Y121771D01*
X17431Y121870D01*
X17694Y121938D01*
X18531Y121454D01*
X19499Y121195D01*
X20501D01*
X21469Y121454D01*
X22336Y121955D01*
X23045Y122664D01*
X23546Y123531D01*
X23805Y124499D01*
Y125501D01*
X23546Y126469D01*
X23045Y127336D01*
X22336Y128045D01*
X21469Y128546D01*
X20501Y128805D01*
X19499D01*
X18531Y128546D01*
X17694Y128062D01*
X17431Y128130D01*
X17194Y128229D01*
Y131771D01*
X17431Y131869D01*
X17694Y131938D01*
X18531Y131454D01*
X19499Y131195D01*
X20501D01*
X21469Y131454D01*
X22336Y131955D01*
X23045Y132664D01*
X23546Y133531D01*
X23805Y134499D01*
Y135501D01*
X23546Y136469D01*
X23045Y137336D01*
X22336Y138045D01*
X21469Y138546D01*
X20501Y138805D01*
X19499D01*
X18531Y138546D01*
X17694Y138062D01*
X17431Y138130D01*
X17194Y138229D01*
Y141771D01*
X17431Y141869D01*
X17694Y141938D01*
X18531Y141454D01*
X19499Y141195D01*
X20501D01*
X21469Y141454D01*
X22336Y141955D01*
X23045Y142664D01*
X23546Y143531D01*
X23805Y144499D01*
Y145501D01*
X23546Y146469D01*
X23045Y147336D01*
X22336Y148045D01*
X21469Y148546D01*
X20501Y148805D01*
X19499D01*
X18531Y148546D01*
X17694Y148062D01*
X17431Y148131D01*
X17194Y148229D01*
Y151771D01*
X17431Y151869D01*
X17694Y151938D01*
X18531Y151454D01*
X19499Y151195D01*
X20501D01*
X21469Y151454D01*
X22336Y151955D01*
X23045Y152664D01*
X23546Y153531D01*
X23805Y154499D01*
Y155501D01*
X23546Y156469D01*
X23045Y157336D01*
X22336Y158045D01*
X21469Y158546D01*
X20501Y158805D01*
X19499D01*
X18531Y158546D01*
X17694Y158062D01*
X17431Y158131D01*
X17194Y158229D01*
Y161771D01*
X17431Y161870D01*
X17694Y161938D01*
X18531Y161454D01*
X19499Y161195D01*
X20501D01*
X21469Y161454D01*
X22336Y161955D01*
X23045Y162664D01*
X23546Y163531D01*
X23805Y164499D01*
Y165501D01*
X23546Y166469D01*
X23045Y167336D01*
X22336Y168045D01*
X21469Y168546D01*
X20501Y168805D01*
X19499D01*
X18531Y168546D01*
X17694Y168062D01*
X17431Y168131D01*
X17194Y168229D01*
Y171771D01*
X17431Y171870D01*
X17694Y171938D01*
X18531Y171454D01*
X19499Y171195D01*
X20501D01*
X21469Y171454D01*
X22336Y171955D01*
X23045Y172664D01*
X23546Y173531D01*
X23805Y174499D01*
Y175501D01*
X23546Y176469D01*
X23045Y177336D01*
X22336Y178045D01*
X21469Y178546D01*
X20501Y178805D01*
X19499D01*
X18531Y178546D01*
X17694Y178062D01*
X17431Y178130D01*
X17194Y178229D01*
Y181195D01*
X23805D01*
Y188805D01*
X17194D01*
Y244250D01*
X27554Y254610D01*
X27974Y254482D01*
X28058Y254407D01*
X28535Y253693D01*
X32039Y250190D01*
X31780Y249741D01*
X30755Y250016D01*
X29559D01*
X28404Y249706D01*
X27368Y249108D01*
X26522Y248262D01*
X25924Y247226D01*
X25614Y246071D01*
Y244874D01*
X25924Y243719D01*
X26522Y242683D01*
X27368Y241837D01*
X27863Y241551D01*
Y49843D01*
X28038Y48965D01*
X28535Y48220D01*
X40846Y35910D01*
X40752Y35559D01*
Y34441D01*
X41041Y33360D01*
X41601Y32392D01*
X42392Y31601D01*
X43360Y31041D01*
X44441Y30752D01*
X45559D01*
X46640Y31041D01*
X47608Y31601D01*
X48399Y32392D01*
X48959Y33360D01*
X49248Y34441D01*
Y35559D01*
X48959Y36640D01*
X48399Y37608D01*
X47608Y38399D01*
X46640Y38958D01*
X45559Y39248D01*
X44441D01*
X44090Y39154D01*
X32452Y50793D01*
Y241551D01*
X32947Y241837D01*
X33793Y242683D01*
X34391Y243719D01*
X34701Y244874D01*
Y246071D01*
X34426Y247095D01*
X34875Y247354D01*
X35605Y246623D01*
X35457Y246071D01*
Y245972D01*
X39500D01*
Y250016D01*
X39402D01*
X38849Y249868D01*
X32452Y256265D01*
Y260457D01*
Y298637D01*
X32947Y298923D01*
X33793Y299769D01*
X34391Y300805D01*
X34701Y301961D01*
Y302059D01*
D02*
G37*
G36*
X40598Y250016D02*
X40500D01*
Y245972D01*
X44543D01*
Y246071D01*
X44234Y247226D01*
X43635Y248262D01*
X42790Y249108D01*
X41754Y249706D01*
X40598Y250016D01*
D02*
G37*
G36*
X44543Y244972D02*
X40500D01*
Y240929D01*
X40598D01*
X41754Y241239D01*
X42790Y241837D01*
X43635Y242683D01*
X44234Y243719D01*
X44543Y244874D01*
Y244972D01*
D02*
G37*
G36*
X39500D02*
X35457D01*
Y244874D01*
X35766Y243719D01*
X36364Y242683D01*
X37210Y241837D01*
X38246Y241239D01*
X39402Y240929D01*
X39500D01*
Y244972D01*
D02*
G37*
G36*
X89500Y78559D02*
X87228D01*
Y75500D01*
X89500D01*
Y78559D01*
D02*
G37*
G36*
Y74500D02*
X87228D01*
Y71441D01*
X89500D01*
Y74500D01*
D02*
G37*
G36*
X35559Y39248D02*
X34441D01*
X33360Y38958D01*
X32392Y38399D01*
X31601Y37608D01*
X31041Y36640D01*
X30752Y35559D01*
Y34441D01*
X31041Y33360D01*
X31601Y32392D01*
X32392Y31601D01*
X33360Y31041D01*
X34441Y30752D01*
X35559D01*
X36640Y31041D01*
X37608Y31601D01*
X38399Y32392D01*
X38958Y33360D01*
X39248Y34441D01*
Y35559D01*
X38958Y36640D01*
X38399Y37608D01*
X37608Y38399D01*
X36640Y38958D01*
X35559Y39248D01*
D02*
G37*
G36*
Y29248D02*
X35500D01*
Y25500D01*
X39248D01*
Y25559D01*
X38958Y26640D01*
X38399Y27608D01*
X37608Y28399D01*
X36640Y28958D01*
X35559Y29248D01*
D02*
G37*
G36*
X75559D02*
X74441D01*
X73360Y28958D01*
X72392Y28399D01*
X71601Y27608D01*
X71042Y26640D01*
X70752Y25559D01*
Y24441D01*
X71042Y23360D01*
X71601Y22392D01*
X72392Y21601D01*
X73360Y21042D01*
X74441Y20752D01*
X75559D01*
X76640Y21042D01*
X77608Y21601D01*
X78399Y22392D01*
X78958Y23360D01*
X79248Y24441D01*
Y25559D01*
X78958Y26640D01*
X78399Y27608D01*
X77608Y28399D01*
X76640Y28958D01*
X75559Y29248D01*
D02*
G37*
G36*
X65559D02*
X64441D01*
X63360Y28958D01*
X62392Y28399D01*
X61601Y27608D01*
X61041Y26640D01*
X60752Y25559D01*
Y24441D01*
X61041Y23360D01*
X61601Y22392D01*
X62392Y21601D01*
X63360Y21042D01*
X64441Y20752D01*
X65559D01*
X66640Y21042D01*
X67608Y21601D01*
X68399Y22392D01*
X68958Y23360D01*
X69248Y24441D01*
Y25559D01*
X68958Y26640D01*
X68399Y27608D01*
X67608Y28399D01*
X66640Y28958D01*
X65559Y29248D01*
D02*
G37*
G36*
X55559D02*
X54441D01*
X53360Y28958D01*
X52392Y28399D01*
X51601Y27608D01*
X51042Y26640D01*
X50752Y25559D01*
Y24441D01*
X51042Y23360D01*
X51601Y22392D01*
X52392Y21601D01*
X53360Y21042D01*
X54441Y20752D01*
X55559D01*
X56640Y21042D01*
X57608Y21601D01*
X58399Y22392D01*
X58959Y23360D01*
X59248Y24441D01*
Y25559D01*
X58959Y26640D01*
X58399Y27608D01*
X57608Y28399D01*
X56640Y28958D01*
X55559Y29248D01*
D02*
G37*
G36*
X45559D02*
X44441D01*
X43360Y28958D01*
X42392Y28399D01*
X41601Y27608D01*
X41041Y26640D01*
X40752Y25559D01*
Y24441D01*
X41041Y23360D01*
X41601Y22392D01*
X42392Y21601D01*
X43360Y21042D01*
X44441Y20752D01*
X45559D01*
X46640Y21042D01*
X47608Y21601D01*
X48399Y22392D01*
X48959Y23360D01*
X49248Y24441D01*
Y25559D01*
X48959Y26640D01*
X48399Y27608D01*
X47608Y28399D01*
X46640Y28958D01*
X45559Y29248D01*
D02*
G37*
G36*
X39248Y24500D02*
X35500D01*
Y20752D01*
X35559D01*
X36640Y21042D01*
X37608Y21601D01*
X38399Y22392D01*
X38958Y23360D01*
X39248Y24441D01*
Y24500D01*
D02*
G37*
G36*
X34500D02*
X30752D01*
Y24441D01*
X31041Y23360D01*
X31601Y22392D01*
X32392Y21601D01*
X33360Y21042D01*
X34441Y20752D01*
X34500D01*
Y24500D01*
D02*
G37*
G36*
X278969Y233756D02*
X276500D01*
Y230500D01*
X278969D01*
Y233756D01*
D02*
G37*
G36*
X275500D02*
X273031D01*
Y230500D01*
X275500D01*
Y233756D01*
D02*
G37*
G36*
X316563Y173551D02*
Y170500D01*
X319614D01*
X319379Y171374D01*
X318911Y172185D01*
X318248Y172848D01*
X317437Y173317D01*
X316563Y173551D01*
D02*
G37*
G36*
X308618Y209185D02*
X301382D01*
X301623Y208286D01*
X302100Y207460D01*
X302706Y206854D01*
Y181063D01*
X302881Y180185D01*
X303378Y179441D01*
X312319Y170500D01*
X315563D01*
Y173744D01*
X307294Y182013D01*
Y206854D01*
X307900Y207460D01*
X308377Y208286D01*
X308618Y209185D01*
D02*
G37*
G36*
X319614Y169500D02*
X316563D01*
Y166449D01*
X317437Y166683D01*
X318248Y167152D01*
X318911Y167815D01*
X319379Y168626D01*
X319614Y169500D01*
D02*
G37*
G36*
X315563D02*
X312512D01*
X312747Y168626D01*
X313215Y167815D01*
X313878Y167152D01*
X314689Y166683D01*
X315563Y166449D01*
Y169500D01*
D02*
G37*
G36*
X290563D02*
X287512D01*
X287747Y168626D01*
X288215Y167815D01*
X288878Y167152D01*
X289689Y166683D01*
X290563Y166449D01*
Y169500D01*
D02*
G37*
G36*
X340126Y153261D02*
Y150500D01*
X342887D01*
X342682Y151266D01*
X342250Y152014D01*
X341640Y152624D01*
X340892Y153056D01*
X340126Y153261D01*
D02*
G37*
G36*
X339126D02*
X338360Y153056D01*
X337612Y152624D01*
X337002Y152014D01*
X336570Y151266D01*
X336365Y150500D01*
X339126D01*
Y153261D01*
D02*
G37*
G36*
Y149500D02*
X336365D01*
X336570Y148734D01*
X337002Y147986D01*
X337612Y147376D01*
X338360Y146944D01*
X339126Y146739D01*
Y149500D01*
D02*
G37*
G36*
X276709Y173756D02*
X270772D01*
Y166244D01*
X271446D01*
Y144190D01*
X269978Y142722D01*
X269852Y142534D01*
X269692Y142375D01*
X269606Y142166D01*
X269480Y141978D01*
X269437Y141756D01*
X269350Y141548D01*
Y141322D01*
X269306Y141100D01*
X269350Y140878D01*
Y140652D01*
X269437Y140444D01*
X269480Y140222D01*
X269606Y140034D01*
X269692Y139825D01*
X269852Y139666D01*
X269978Y139478D01*
X270166Y139352D01*
X270325Y139192D01*
X270534Y139106D01*
X270722Y138980D01*
X270944Y138936D01*
X271152Y138850D01*
X271378D01*
X271600Y138806D01*
X271822Y138850D01*
X272048D01*
X272256Y138936D01*
X272478Y138980D01*
X272666Y139106D01*
X272874Y139192D01*
X273034Y139352D01*
X273222Y139478D01*
X275362Y141618D01*
X275860Y142362D01*
X276034Y143240D01*
Y166244D01*
X276709D01*
Y173756D01*
D02*
G37*
G36*
X317752Y122063D02*
X300323D01*
Y100000D01*
Y77937D01*
X317752D01*
Y97706D01*
X333862D01*
Y97031D01*
X341055D01*
Y100000D01*
Y102969D01*
X333862D01*
Y102294D01*
X317752D01*
Y122063D01*
D02*
G37*
G36*
X299323D02*
X281894D01*
Y102294D01*
X280000D01*
X279122Y102120D01*
X278378Y101622D01*
X268378Y91622D01*
X267881Y90878D01*
X267706Y90000D01*
Y88559D01*
X267228D01*
Y85500D01*
X272772D01*
Y88559D01*
X272317D01*
X272303Y89059D01*
X280950Y97706D01*
X281894D01*
Y77937D01*
X299323D01*
Y100000D01*
Y122063D01*
D02*
G37*
G36*
X271512Y64500D02*
X269240D01*
Y61441D01*
X271512D01*
Y64500D01*
D02*
G37*
G36*
X268240D02*
X265969D01*
Y61441D01*
X268240D01*
Y64500D01*
D02*
G37*
G36*
X315711Y50400D02*
X314289D01*
X312916Y50032D01*
X311685Y49321D01*
X310679Y48315D01*
X309968Y47084D01*
X309600Y45711D01*
Y44289D01*
X309968Y42916D01*
X310679Y41685D01*
X311685Y40679D01*
X312916Y39968D01*
X314289Y39600D01*
X315711D01*
X317084Y39968D01*
X318315Y40679D01*
X319321Y41685D01*
X320032Y42916D01*
X320400Y44289D01*
Y45711D01*
X320032Y47084D01*
X319321Y48315D01*
X318315Y49321D01*
X317084Y50032D01*
X315711Y50400D01*
D02*
G37*
G36*
X349248Y92968D02*
X333862D01*
Y92267D01*
X333122Y92119D01*
X332378Y91622D01*
X293378Y52622D01*
X292881Y51878D01*
X292706Y51000D01*
Y50400D01*
X289600D01*
Y39600D01*
X300400D01*
Y50400D01*
X298297D01*
X298106Y50862D01*
X334276Y87032D01*
X349248D01*
Y92968D01*
D02*
G37*
G36*
X262669Y28604D02*
X260110D01*
X259221Y28427D01*
X258467Y27923D01*
X257963Y27169D01*
X257786Y26280D01*
Y23720D01*
X257963Y22831D01*
X258467Y22077D01*
X259221Y21573D01*
X260110Y21396D01*
X262669D01*
X263559Y21573D01*
X264313Y22077D01*
X264817Y22831D01*
X264994Y23720D01*
Y26280D01*
X264817Y27169D01*
X264313Y27923D01*
X263559Y28427D01*
X262669Y28604D01*
D02*
G37*
G36*
X175650Y194937D02*
X174350D01*
X173094Y194601D01*
X171969Y193951D01*
X171049Y193031D01*
X170399Y191906D01*
X170063Y190650D01*
Y189350D01*
X170399Y188094D01*
X171049Y186969D01*
X171969Y186049D01*
X173094Y185399D01*
X174350Y185063D01*
X175650D01*
X176906Y185399D01*
X178031Y186049D01*
X178951Y186969D01*
X179601Y188094D01*
X179937Y189350D01*
Y190650D01*
X179601Y191906D01*
X178951Y193031D01*
X178031Y193951D01*
X176906Y194601D01*
X175650Y194937D01*
D02*
G37*
G36*
X267969Y193756D02*
X265500D01*
Y190500D01*
X267969D01*
Y193756D01*
D02*
G37*
G36*
X479500Y184396D02*
X479421D01*
X478303Y184096D01*
X477301Y183517D01*
X476483Y182699D01*
X475904Y181697D01*
X475604Y180579D01*
Y180500D01*
X479500D01*
Y184396D01*
D02*
G37*
G36*
X459874Y143314D02*
X459088Y143104D01*
X458329Y142665D01*
X457709Y142045D01*
X457270Y141286D01*
X457060Y140500D01*
X459874D01*
Y143314D01*
D02*
G37*
G36*
X463688Y139500D02*
X460874D01*
Y136686D01*
X461660Y136896D01*
X462419Y137335D01*
X463039Y137955D01*
X463478Y138714D01*
X463688Y139500D01*
D02*
G37*
G36*
X459874D02*
X457060D01*
X457270Y138714D01*
X457709Y137955D01*
X458329Y137335D01*
X459088Y136896D01*
X459874Y136686D01*
Y139500D01*
D02*
G37*
G36*
X400126Y173314D02*
Y170500D01*
X402940D01*
X402730Y171286D01*
X402291Y172045D01*
X401671Y172665D01*
X400912Y173104D01*
X400126Y173314D01*
D02*
G37*
G36*
X402940Y169500D02*
X400126D01*
Y166686D01*
X400912Y166896D01*
X401671Y167335D01*
X402291Y167955D01*
X402730Y168714D01*
X402940Y169500D01*
D02*
G37*
G36*
X60501Y188805D02*
X59499D01*
X58531Y188546D01*
X57664Y188045D01*
X56955Y187336D01*
X56454Y186469D01*
X56195Y185501D01*
Y184499D01*
X56454Y183531D01*
X56955Y182664D01*
X57664Y181955D01*
X58531Y181454D01*
X59499Y181195D01*
X60501D01*
X61469Y181454D01*
X62336Y181955D01*
X63045Y182664D01*
X63546Y183531D01*
X63805Y184499D01*
Y185501D01*
X63546Y186469D01*
X63045Y187336D01*
X62336Y188045D01*
X61469Y188546D01*
X60501Y188805D01*
D02*
G37*
G36*
X81602Y181878D02*
X77362D01*
Y180000D01*
X81602D01*
Y181878D01*
D02*
G37*
G36*
X252299Y108559D02*
X250028D01*
Y105500D01*
X252299D01*
Y108559D01*
D02*
G37*
G36*
X247110Y24500D02*
X244060D01*
X244294Y23626D01*
X244762Y22815D01*
X245425Y22152D01*
X246236Y21684D01*
X247110Y21449D01*
Y24500D01*
D02*
G37*
G36*
X214500Y119500D02*
X211382D01*
X211623Y118601D01*
X212100Y117775D01*
X212775Y117100D01*
X213601Y116623D01*
X214500Y116382D01*
Y119500D01*
D02*
G37*
G36*
X400126Y53314D02*
Y50500D01*
X402940D01*
X402730Y51286D01*
X402291Y52045D01*
X401671Y52665D01*
X400912Y53104D01*
X400126Y53314D01*
D02*
G37*
%LPD*%
D11*
X14142Y0D02*
G03*
X14142Y0I-14142J0D01*
G01*
D16*
X272480Y250000D02*
D03*
X265000D02*
D03*
X297480Y290000D02*
D03*
X290000D02*
D03*
X322480Y270000D02*
D03*
X315000D02*
D03*
X297480D02*
D03*
X290000D02*
D03*
X323740Y290000D02*
D03*
X316260D02*
D03*
X88740Y235000D02*
D03*
X81260D02*
D03*
X108740Y215000D02*
D03*
X101260D02*
D03*
X81260D02*
D03*
X88740D02*
D03*
X266000Y208000D02*
D03*
X273480D02*
D03*
X236260Y190000D02*
D03*
X243740D02*
D03*
X236260Y210000D02*
D03*
X243740D02*
D03*
X268520Y230000D02*
D03*
X276000D02*
D03*
X236260D02*
D03*
X243740D02*
D03*
X236260Y250000D02*
D03*
X243740D02*
D03*
X266260Y270000D02*
D03*
X273740D02*
D03*
X236260D02*
D03*
X243740D02*
D03*
X236260Y290000D02*
D03*
X243740D02*
D03*
X265000D02*
D03*
X272480D02*
D03*
X236260Y150000D02*
D03*
X243740D02*
D03*
X266260Y170000D02*
D03*
X273740D02*
D03*
X236260D02*
D03*
X243740D02*
D03*
X272480Y190000D02*
D03*
X265000D02*
D03*
D17*
X119898Y159500D02*
D03*
X82102Y179500D02*
D03*
Y174500D02*
D03*
Y169500D02*
D03*
Y164500D02*
D03*
Y159500D02*
D03*
Y154500D02*
D03*
Y149500D02*
D03*
Y144500D02*
D03*
Y139500D02*
D03*
Y134500D02*
D03*
X119898D02*
D03*
Y139500D02*
D03*
Y144500D02*
D03*
Y149500D02*
D03*
Y154500D02*
D03*
Y164500D02*
D03*
Y169500D02*
D03*
Y174500D02*
D03*
Y179500D02*
D03*
D18*
X290000Y245000D02*
D03*
X303780D02*
D03*
D19*
X341555Y90000D02*
D03*
Y100000D02*
D03*
Y110000D02*
D03*
D20*
X299823Y100000D02*
D03*
D21*
X101260Y235000D02*
D03*
X108740D02*
D03*
X88740Y55000D02*
D03*
X81260D02*
D03*
X108740D02*
D03*
X101260D02*
D03*
X109528Y75000D02*
D03*
X100472D02*
D03*
X80945D02*
D03*
X90000D02*
D03*
X510945Y200000D02*
D03*
X520000D02*
D03*
X510472Y220000D02*
D03*
X519528D02*
D03*
X535945D02*
D03*
X545000D02*
D03*
X535472Y200000D02*
D03*
X544528D02*
D03*
X262520Y85000D02*
D03*
X270000D02*
D03*
X241260D02*
D03*
X248740D02*
D03*
X240472Y105000D02*
D03*
X249528D02*
D03*
X261260Y65000D02*
D03*
X268740D02*
D03*
X240260Y65500D02*
D03*
X247740D02*
D03*
D22*
X511063Y130000D02*
D03*
X518937D02*
D03*
X511063Y150000D02*
D03*
X518937D02*
D03*
X511063Y170000D02*
D03*
X518937D02*
D03*
D23*
X525000Y105000D02*
D03*
X513773D02*
D03*
D24*
X569724Y220000D02*
D03*
X560276D02*
D03*
D44*
X204528Y250079D02*
D03*
Y269921D02*
D03*
Y289764D02*
D03*
X175000Y250079D02*
D03*
Y269921D02*
D03*
Y289764D02*
D03*
Y190000D02*
D03*
D45*
X204528D02*
D03*
D68*
X559700Y220000D02*
Y221859D01*
X558998Y222561D02*
X559700Y221859D01*
X556449Y225110D02*
X558998Y222561D01*
X553937Y217500D02*
X558998Y222561D01*
X543937Y160000D02*
X548937D01*
X514937D02*
X543937D01*
X458200Y45000D02*
X475000D01*
X397500D02*
X458200D01*
X108740Y209900D02*
X119646D01*
X81260D02*
X108740D01*
X109528Y65387D02*
Y69915D01*
X526459Y215100D02*
X536559Y205000D01*
X519528Y217288D02*
X524271D01*
X353700Y135926D02*
X355000Y134626D01*
X348700Y100000D02*
X349350Y100650D01*
X290680Y283400D02*
X297480D01*
X275000D02*
X290680D01*
X275000D02*
X285400Y273000D01*
X30157Y255315D02*
Y260457D01*
X267500Y182500D02*
X270000Y180000D01*
X265000Y185000D02*
X267500Y182500D01*
X268740Y70000D02*
Y75000D01*
Y65000D02*
Y70000D01*
X260040Y78700D02*
X268300Y70440D01*
X262520Y85000D02*
Y154765D01*
X260700Y136100D02*
Y154765D01*
X564000Y215200D02*
Y225000D01*
Y130600D02*
Y215200D01*
X245700Y12500D02*
X356600D01*
X567500Y220000D02*
Y226700D01*
X118000Y220100D02*
X134300Y203800D01*
X113400Y224700D02*
X118000Y220100D01*
X95600Y216600D02*
X101260D01*
X243740Y189300D02*
X251900D01*
X325500Y223650D02*
Y264500D01*
Y184900D02*
Y223650D01*
X265000Y260000D02*
X278200Y273200D01*
X272480Y191500D02*
X275000D01*
X323937Y124463D02*
Y170000D01*
Y124463D02*
X338400Y110000D01*
X341555D01*
X480000Y160000D02*
X514937D01*
X543937Y155000D02*
Y160000D01*
X518937Y155000D02*
X543937D01*
X518937Y150000D02*
Y155000D01*
X511063Y163874D02*
Y170000D01*
Y163874D02*
X514937Y160000D01*
X548937D02*
X553937Y165000D01*
X234528Y120000D02*
X249528Y105000D01*
X215000Y120000D02*
X234528D01*
X300500Y245000D02*
X303780D01*
X296675Y241175D02*
X300500Y245000D01*
X285400Y241175D02*
X296675D01*
X285400D02*
Y273000D01*
X519528Y217288D02*
Y220000D01*
X536559Y205000D02*
X544528D01*
Y200000D02*
Y205000D01*
X441800Y170000D02*
Y226000D01*
X460800Y245000D01*
X575000D01*
X600000Y220000D01*
X30157Y255315D02*
X40000Y245472D01*
X260700Y154765D02*
X262520D01*
X260700D02*
Y193700D01*
X266000Y199000D01*
Y208000D01*
X399626Y60000D02*
X452200Y112574D01*
Y218700D01*
X470600Y237100D01*
X567970D01*
X573400Y231670D01*
Y215200D02*
Y231670D01*
X564000Y215200D02*
X573400D01*
X560390Y228610D02*
X564000Y225000D01*
X510472Y228610D02*
X560390D01*
X510472Y220000D02*
Y228610D01*
X269880Y199000D02*
X273480Y195400D01*
X236260Y190000D02*
Y195000D01*
X113500Y139500D02*
X119898D01*
X273740Y270000D02*
Y273200D01*
X265000Y250000D02*
Y260000D01*
X236260Y288500D02*
Y290000D01*
Y288500D02*
X251560Y273200D01*
X273480Y195400D02*
Y208000D01*
X243740Y230000D02*
Y236569D01*
X248271Y241100D01*
X254900D01*
X307300Y234700D02*
Y241100D01*
Y234700D02*
X316700Y225300D01*
Y185600D02*
Y225300D01*
Y185600D02*
X339626Y162674D01*
X265000Y280000D02*
Y290000D01*
X254900Y269900D02*
X265000Y280000D01*
X254900Y253900D02*
Y269900D01*
X339626Y160000D02*
Y162674D01*
X81260Y235000D02*
Y236860D01*
X84500Y240100D01*
X103900D01*
X108740Y235260D01*
Y235000D02*
Y235260D01*
X49843Y266417D02*
X81260Y235000D01*
X49843Y266417D02*
Y302559D01*
X101260Y10000D02*
Y55000D01*
Y10000D02*
X106460Y4800D01*
X129100D01*
X134300Y10000D01*
X92100Y224700D02*
X113400D01*
X261260Y48460D02*
Y65000D01*
X253200Y40400D02*
X261260Y48460D01*
X253200Y20000D02*
Y40400D01*
X245700Y12500D02*
X253200Y20000D01*
X238550Y12500D02*
X245700D01*
X156900Y94150D02*
X238550Y12500D01*
X156900Y94150D02*
Y191900D01*
X186700Y221700D01*
X245000D01*
X260700Y237400D01*
X266260Y267600D02*
Y270000D01*
X339626Y170000D02*
X361700Y147926D01*
Y17600D02*
Y147926D01*
X356600Y12500D02*
X361700Y17600D01*
X260700Y237400D02*
Y262040D01*
X266260Y267600D01*
X236260Y210000D02*
X239000Y212740D01*
Y216400D01*
X352500Y177874D02*
Y222500D01*
Y177874D02*
X370374Y160000D01*
X241260Y77960D02*
Y85000D01*
X235000Y71700D02*
X241260Y77960D01*
X184300Y71700D02*
X235000D01*
X160400Y95600D02*
X184300Y71700D01*
X160400Y95600D02*
Y163100D01*
X207300Y210000D01*
X236260D01*
X30157Y260457D02*
Y302559D01*
X14900Y245200D02*
X30157Y260457D01*
X14900Y45100D02*
Y245200D01*
Y45100D02*
X35000Y25000D01*
X272480Y285920D02*
Y290000D01*
Y285920D02*
X275000Y283400D01*
X290680D02*
X297480Y276600D01*
Y270000D02*
Y276600D01*
X281063Y180000D02*
X291063Y170000D01*
X270000Y180000D02*
X281063D01*
X276000Y224199D02*
Y230000D01*
Y224199D02*
X281199Y219000D01*
Y190000D02*
Y219000D01*
X273699Y182500D02*
X281199Y190000D01*
X267500Y182500D02*
X273699D01*
X265000Y185000D02*
Y190000D01*
X355000Y45000D02*
Y134626D01*
X270000Y76260D02*
Y85000D01*
X268740Y75000D02*
X270000Y76260D01*
X248740Y78700D02*
Y85000D01*
Y78700D02*
X260040D01*
X268300Y70440D02*
X268740Y70000D01*
X247740Y70440D02*
X268300D01*
X247740Y65500D02*
Y70440D01*
X108740Y55000D02*
Y64600D01*
X109528Y65387D01*
X88740Y55000D02*
X99128Y65387D01*
X105000D01*
X109528Y69915D01*
Y75000D01*
X553937Y165000D02*
Y217500D01*
X541055Y225110D02*
X556449D01*
X399626Y180000D02*
X407707Y171919D01*
Y100907D02*
Y171919D01*
X401400Y94600D02*
X407707Y100907D01*
X397500Y94600D02*
X401400D01*
X395000Y92100D02*
X397500Y94600D01*
X395000Y47500D02*
Y92100D01*
Y47500D02*
X397500Y45000D01*
X577500Y202500D02*
X600000Y180000D01*
X577500Y202500D02*
Y234900D01*
X571800Y240600D02*
X577500Y234900D01*
X466236Y240600D02*
X571800D01*
X445300Y219664D02*
X466236Y240600D01*
X445300Y180000D02*
Y219664D01*
X240472Y92900D02*
Y105000D01*
X223572Y76000D02*
X240472Y92900D01*
X195700Y76000D02*
X223572D01*
X163900Y107800D02*
X195700Y76000D01*
X163900Y107800D02*
Y160047D01*
X193853Y190000D01*
X204528D01*
X290100Y178837D02*
X298937Y170000D01*
X290100Y178837D02*
Y229346D01*
X272480Y246965D02*
X290100Y229346D01*
X272480Y246965D02*
Y250000D01*
X455700Y125326D02*
X460374Y130000D01*
X455700Y47500D02*
Y125326D01*
Y47500D02*
X458200Y45000D01*
X475000D02*
X480000Y50000D01*
X460374Y130000D02*
X480000Y149626D01*
Y160000D01*
X485700Y154300D01*
Y105700D02*
Y154300D01*
X480000Y100000D02*
X485700Y105700D01*
X518937Y130000D02*
Y150000D01*
Y130000D02*
X522500D01*
X525000Y127500D01*
Y105000D02*
Y127500D01*
X559700Y220000D02*
X560276D01*
X535945D02*
X541055Y225110D01*
X535945Y220000D02*
Y225098D01*
X515506D02*
X535945D01*
X515506Y213788D02*
Y225098D01*
Y213788D02*
X522206D01*
X535472Y200522D01*
Y200000D02*
Y200522D01*
X75000Y35000D02*
X88740Y48740D01*
Y55000D01*
Y62760D01*
X80945Y70555D02*
X88740Y62760D01*
X80945Y70555D02*
Y75000D01*
X109528D02*
Y129472D01*
X106500Y132500D02*
X109528Y129472D01*
X106500Y132500D02*
Y159443D01*
X106557Y159500D01*
X119898D01*
X108740Y9660D02*
Y55000D01*
Y9660D02*
X109200Y9200D01*
X125000D01*
X130800Y15000D01*
Y198746D01*
X119646Y209900D02*
X130800Y198746D01*
X81260Y209900D02*
Y215000D01*
X108740Y209900D02*
Y215000D01*
X81260D02*
Y221200D01*
X88740Y228680D01*
Y235000D01*
X101260D01*
X247610Y25000D02*
Y37488D01*
X247740Y37618D01*
Y65500D01*
X248740Y85000D02*
Y94600D01*
X249528Y95387D01*
Y105000D01*
X270000Y85000D02*
Y90000D01*
X280000Y100000D01*
X299823D01*
X341555D01*
X215000Y120000D02*
Y154685D01*
X341555Y100000D02*
X348700D01*
X341555D02*
X349350Y100650D01*
X353700Y105000D01*
Y135926D01*
X339626Y150000D02*
X353700Y135926D01*
X355000Y33011D02*
Y45000D01*
X354289Y32300D02*
X355000Y33011D01*
X354289Y20400D02*
Y32300D01*
X305000Y181063D02*
X316063Y170000D01*
X305000Y181063D02*
Y209685D01*
Y223300D01*
X303780Y224520D02*
X305000Y223300D01*
X303780Y224520D02*
Y245000D01*
X480000Y180000D02*
X531063D01*
X546063Y165000D01*
X473800Y173800D02*
X480000Y180000D01*
X473800Y153426D02*
Y173800D01*
X460374Y140000D02*
X473800Y153426D01*
X480000Y180000D02*
X485700Y185700D01*
Y219300D01*
X480000Y225000D02*
X485700Y219300D01*
X546063Y165000D02*
Y181700D01*
X544528Y183235D02*
X546063Y181700D01*
X544528Y183235D02*
Y200000D01*
X474300Y104300D02*
X480000Y110000D01*
X474300Y75700D02*
Y104300D01*
Y75700D02*
X480000Y70000D01*
X297480Y283400D02*
Y290000D01*
X545000Y215100D02*
Y220000D01*
X526459Y215100D02*
X545000D01*
X524271Y217288D02*
X526459Y215100D01*
X272480Y290000D02*
Y291120D01*
X264458Y299142D02*
X272480Y291120D01*
X252882Y299142D02*
X264458D01*
X243740Y290000D02*
X252882Y299142D01*
X82102Y179500D02*
X95900D01*
X99500Y175900D01*
Y125726D02*
Y175900D01*
Y125726D02*
X100472Y124754D01*
Y75000D02*
Y124754D01*
X90000Y75000D02*
X100472D01*
X295000Y45000D02*
Y51000D01*
X334000Y90000D01*
X341555D01*
X314289Y20400D02*
X329900Y36010D01*
Y39900D01*
X335000Y45000D01*
X388900Y33300D02*
Y107200D01*
X397119Y115419D01*
X404207D01*
Y134581D01*
X397500D02*
X404207D01*
X395000Y137081D02*
X397500Y134581D01*
X395000Y137081D02*
Y202100D01*
X397500Y204600D01*
X405800D01*
X432500Y231300D01*
Y242500D01*
X480000Y290000D01*
X513773Y97100D02*
Y105000D01*
Y97100D02*
X530500D01*
X564000Y130600D01*
X240260Y16840D02*
Y65500D01*
X381200Y130000D02*
X399626D01*
X376100Y135100D02*
X381200Y130000D01*
X376100Y135100D02*
Y300600D01*
X368700Y308000D02*
X376100Y300600D01*
X238035Y308000D02*
X368700D01*
X228541Y298506D02*
X238035Y308000D01*
X228541Y279619D02*
Y298506D01*
Y279619D02*
X236260Y271900D01*
Y270000D02*
Y271900D01*
X510000Y183500D02*
X510945Y184445D01*
Y200000D01*
X520000D02*
Y205000D01*
X515000Y210000D02*
X520000Y205000D01*
X511500Y210000D02*
X515000D01*
X506400Y215100D02*
X511500Y210000D01*
X506400Y215100D02*
Y230200D01*
X508950Y232750D01*
X561450D01*
X567500Y226700D01*
Y220000D02*
X569724D01*
X30157Y49843D02*
X45000Y35000D01*
X30157Y49843D02*
Y245472D01*
X88740Y215000D02*
Y220100D01*
X118000D01*
X134300Y10000D02*
Y203800D01*
X47900Y42100D02*
X55000Y35000D01*
X47900Y42100D02*
Y208600D01*
X49843Y210543D01*
Y245472D01*
X76950Y41900D02*
X81260Y46210D01*
Y55000D01*
X101260Y215000D02*
Y216600D01*
X65000Y35000D02*
Y83700D01*
X51400Y97300D02*
X65000Y83700D01*
X51400Y97300D02*
Y205140D01*
X81260Y235000D01*
X236260Y250000D02*
Y256200D01*
X243740Y263680D01*
Y270000D01*
Y273295D01*
X232041Y284994D02*
X243740Y273295D01*
X232041Y284994D02*
Y295006D01*
X240635Y303600D01*
X322300D01*
X330199Y295701D01*
Y261494D02*
Y295701D01*
X329000Y260295D02*
X330199Y261494D01*
X329000Y190626D02*
Y260295D01*
Y190626D02*
X339626Y180000D01*
X243740Y189300D02*
Y190000D01*
Y201533D01*
X268520Y226312D01*
Y230000D01*
X236260Y170000D02*
Y178640D01*
X232000Y182900D02*
X236260Y178640D01*
X232000Y182900D02*
Y200700D01*
X480000Y170000D02*
X485200Y175200D01*
X518937D01*
Y170000D02*
Y175200D01*
X290000Y245000D02*
Y270000D01*
Y245000D02*
X295500D01*
X301700Y251200D01*
X307500D01*
X310900Y247800D01*
Y238250D02*
Y247800D01*
Y238250D02*
X325500Y223650D01*
Y184900D02*
X335000Y175400D01*
X343800D01*
X365600Y153600D01*
Y126800D02*
Y153600D01*
Y126800D02*
X372400Y120000D01*
X399626D01*
X323740Y278059D02*
Y290000D01*
Y278059D02*
X326699Y275100D01*
Y265699D02*
Y275100D01*
X325500Y264500D02*
X326699Y265699D01*
X320300Y261700D02*
Y267020D01*
X322480Y269200D01*
Y270000D01*
X460374Y40000D02*
X465000D01*
X480000Y25000D01*
X460374Y50000D02*
X465000Y54626D01*
Y115000D01*
X480000Y130000D01*
Y93700D02*
X490000Y83700D01*
Y70000D02*
Y83700D01*
X460374Y150000D02*
X468455Y158081D01*
Y193455D01*
X480000Y205000D01*
X460374Y160000D02*
X464955Y164581D01*
Y199955D01*
X480000Y215000D01*
X455793Y174581D02*
X460374Y170000D01*
X455793Y174581D02*
Y212500D01*
X458693Y215400D01*
X465000D01*
X473000Y223400D01*
Y227500D01*
X476200Y230700D01*
X485107D01*
X510000Y205807D01*
X514093D01*
X515700Y204200D01*
Y192200D02*
Y204200D01*
Y192200D02*
X517900Y190000D01*
X592800Y125500D02*
Y180800D01*
X554500Y87200D02*
X592800Y125500D01*
X511000Y87200D02*
X554500D01*
X508200Y90000D02*
X511000Y87200D01*
X508200Y90000D02*
Y126137D01*
X511063Y129000D01*
Y130000D01*
X507200Y150000D02*
X511063D01*
X504700Y147500D02*
X507200Y150000D01*
X504700Y84500D02*
Y147500D01*
Y84500D02*
X514600Y74600D01*
X570600D01*
X606100Y110100D01*
Y173900D01*
X600000Y180000D02*
X606100Y173900D01*
X72800Y177800D02*
X76100Y174500D01*
X82102D01*
X76300Y169500D02*
X82102D01*
X72750Y167750D02*
X76000Y164500D01*
X82102D01*
X64300Y190800D02*
X69250Y185850D01*
Y166050D02*
Y185850D01*
Y166050D02*
X75800Y159500D01*
X82102D01*
X72500Y105800D02*
Y152900D01*
X74100Y154500D01*
X82102D01*
Y149500D02*
X90000D01*
X54900Y169900D02*
X60000Y175000D01*
X54900Y112300D02*
Y169900D01*
Y112300D02*
X66800Y100400D01*
X72500D01*
X76100Y104000D01*
Y144500D01*
X82102D01*
X96000Y116200D02*
Y133500D01*
X90000Y139500D02*
X96000Y133500D01*
X82102Y139500D02*
X90000D01*
X110000Y136000D02*
X114100Y131900D01*
X110000Y136000D02*
Y143000D01*
X111500Y144500D01*
X119898D01*
X111100Y149500D02*
X119898D01*
X114600Y154500D02*
X119898D01*
X105000Y70700D02*
Y127200D01*
X103000Y129200D02*
X105000Y127200D01*
X103000Y129200D02*
Y163600D01*
X103900Y164500D01*
X119898D01*
X104100Y169293D02*
X104307Y169500D01*
X119898D01*
X175000Y289764D02*
X204528Y260236D01*
Y250079D02*
Y260236D01*
X243740Y210000D02*
Y213740D01*
X265000Y235000D01*
Y250000D01*
X365000Y225000D02*
Y285000D01*
X370000Y290000D01*
X335000Y225000D02*
Y275000D01*
X350000Y290000D01*
X290000D02*
Y295000D01*
X295000Y300000D01*
X296700D01*
X315000Y281700D01*
Y270000D02*
Y281700D01*
Y242300D02*
Y270000D01*
X200100Y99900D02*
X210000Y90000D01*
X200100Y99900D02*
Y125315D01*
X210000D01*
X205000Y130315D02*
X210000Y125315D01*
X205000Y130315D02*
Y154685D01*
Y163900D01*
X207500Y166400D01*
X230900D01*
X243740Y153560D01*
Y150000D02*
Y153560D01*
X205000Y120000D02*
X215000Y110000D01*
Y84685D02*
Y110000D01*
X266260Y123500D02*
Y170000D01*
X271600Y141100D02*
X273740Y143240D01*
Y170000D01*
X210000Y160000D02*
X217200D01*
X225000Y152200D01*
Y133000D02*
Y152200D01*
Y133000D02*
X227500Y130500D01*
X238700D01*
X248000Y139800D01*
Y154250D01*
X243740Y158510D02*
X248000Y154250D01*
X243740Y158510D02*
Y170000D01*
Y176000D01*
X257200Y189460D01*
Y207800D01*
X262500Y213100D01*
X277699D01*
Y194199D02*
Y213100D01*
X275000Y191500D02*
X277699Y194199D01*
X272480Y190000D02*
Y191500D01*
X236260Y230000D02*
Y236200D01*
X243740Y243680D01*
Y250000D01*
X170000Y119685D02*
X205000Y84685D01*
X170000Y119685D02*
Y135000D01*
X309900Y300100D02*
X316260Y293740D01*
Y290000D02*
Y293740D01*
X230060Y135000D02*
X236260Y141200D01*
Y150000D01*
D69*
X247610Y25000D02*
D03*
X316063Y170000D02*
D03*
X546063Y165000D02*
D03*
X291063Y170000D02*
D03*
D70*
X261390Y25000D02*
D03*
X323937Y170000D02*
D03*
X553937Y165000D02*
D03*
X298937Y170000D02*
D03*
D71*
X17953Y275000D02*
D03*
X62047D02*
D03*
D72*
X49843Y302559D02*
D03*
X30157D02*
D03*
X40000Y245472D02*
D03*
X49843D02*
D03*
X30157D02*
D03*
D73*
X515000Y290000D02*
D03*
X350000D02*
D03*
X600000Y120000D02*
D03*
D74*
X535000Y290000D02*
D03*
X370000D02*
D03*
D75*
X460000D02*
D03*
X405000D02*
D03*
D76*
X480000D02*
D03*
X425000D02*
D03*
D77*
X120000Y20000D02*
D03*
Y300000D02*
D03*
X155000D02*
D03*
Y20000D02*
D03*
X610000Y300000D02*
D03*
D78*
X556630Y56000D02*
D03*
X75000Y25000D02*
D03*
X65000Y35000D02*
D03*
Y25000D02*
D03*
X55000Y35000D02*
D03*
Y25000D02*
D03*
X45000Y35000D02*
D03*
Y25000D02*
D03*
X35000Y35000D02*
D03*
Y25000D02*
D03*
X600000Y220000D02*
D03*
X610000D02*
D03*
X600000Y210000D02*
D03*
X610000D02*
D03*
X600000Y200000D02*
D03*
X610000D02*
D03*
X600000Y190000D02*
D03*
X610000D02*
D03*
X600000Y180000D02*
D03*
D79*
X596000Y56000D02*
D03*
D80*
X305000Y209685D02*
D03*
X300000Y215000D02*
D03*
X210000Y90000D02*
D03*
X215000Y84685D02*
D03*
X210000Y160000D02*
D03*
X215000Y154685D02*
D03*
X210000Y125315D02*
D03*
X215000Y120000D02*
D03*
D81*
X295000Y209685D02*
D03*
X205000Y84685D02*
D03*
Y154685D02*
D03*
Y120000D02*
D03*
D82*
X520000Y24488D02*
D03*
D83*
Y80000D02*
D03*
D84*
X294289Y20400D02*
D03*
X295000Y45000D02*
D03*
D85*
X314289Y20400D02*
D03*
X334289D02*
D03*
X354289D02*
D03*
X315000Y45000D02*
D03*
X335000D02*
D03*
X355000D02*
D03*
D86*
X60000Y185000D02*
D03*
Y175000D02*
D03*
Y165000D02*
D03*
Y155000D02*
D03*
Y145000D02*
D03*
Y135000D02*
D03*
Y125000D02*
D03*
Y115000D02*
D03*
X20000D02*
D03*
Y125000D02*
D03*
Y135000D02*
D03*
Y145000D02*
D03*
Y155000D02*
D03*
Y165000D02*
D03*
Y175000D02*
D03*
D87*
Y185000D02*
D03*
D88*
X75000Y35000D02*
D03*
D89*
X610000Y180000D02*
D03*
D90*
X490000Y50000D02*
D03*
X480000Y205000D02*
D03*
X380000Y110000D02*
D03*
X480000Y160000D02*
D03*
Y100000D02*
D03*
D91*
Y50000D02*
D03*
X490000Y60000D02*
D03*
X480000D02*
D03*
X490000Y70000D02*
D03*
X480000D02*
D03*
Y215000D02*
D03*
Y225000D02*
D03*
X380000Y100000D02*
D03*
Y90000D02*
D03*
Y80000D02*
D03*
Y70000D02*
D03*
X480000Y170000D02*
D03*
Y180000D02*
D03*
Y110000D02*
D03*
Y120000D02*
D03*
Y130000D02*
D03*
X490000Y25000D02*
D03*
X480000D02*
D03*
D92*
X500000D02*
D03*
D93*
X460374Y220000D02*
D03*
Y210000D02*
D03*
Y200000D02*
D03*
Y190000D02*
D03*
Y180000D02*
D03*
Y170000D02*
D03*
Y160000D02*
D03*
Y150000D02*
D03*
Y140000D02*
D03*
Y130000D02*
D03*
Y120000D02*
D03*
Y110000D02*
D03*
Y100000D02*
D03*
Y90000D02*
D03*
Y80000D02*
D03*
Y70000D02*
D03*
Y60000D02*
D03*
Y50000D02*
D03*
Y40000D02*
D03*
Y30000D02*
D03*
X399626D02*
D03*
Y40000D02*
D03*
Y50000D02*
D03*
Y60000D02*
D03*
Y70000D02*
D03*
Y80000D02*
D03*
Y90000D02*
D03*
Y100000D02*
D03*
Y110000D02*
D03*
Y120000D02*
D03*
Y130000D02*
D03*
Y140000D02*
D03*
Y150000D02*
D03*
Y160000D02*
D03*
Y170000D02*
D03*
Y180000D02*
D03*
Y190000D02*
D03*
Y200000D02*
D03*
Y210000D02*
D03*
D94*
Y220000D02*
D03*
D95*
X600000Y140000D02*
D03*
D96*
X370374Y180000D02*
D03*
Y170000D02*
D03*
Y160000D02*
D03*
Y150000D02*
D03*
X339626D02*
D03*
Y160000D02*
D03*
Y170000D02*
D03*
D97*
Y180000D02*
D03*
D98*
X170000Y135000D02*
D03*
Y145000D02*
D03*
D99*
Y155000D02*
D03*
D100*
X335000Y215000D02*
D03*
Y225000D02*
D03*
X365000D02*
D03*
Y215000D02*
D03*
D101*
X441800Y170000D02*
D03*
X269880Y199000D02*
D03*
X236260Y195000D02*
D03*
X113500Y139500D02*
D03*
X278200Y273200D02*
D03*
X251560D02*
D03*
X273480Y195400D02*
D03*
X254900Y241100D02*
D03*
Y253900D02*
D03*
X307300Y241100D02*
D03*
X92100Y224700D02*
D03*
X239000Y216400D02*
D03*
X352500Y222500D02*
D03*
X260700Y136100D02*
D03*
X445300Y180000D02*
D03*
X388900Y33300D02*
D03*
X240260Y16840D02*
D03*
X510000Y183500D02*
D03*
X76950Y41900D02*
D03*
X95600Y216600D02*
D03*
X251900Y189300D02*
D03*
X232000Y200700D02*
D03*
X320300Y261700D02*
D03*
X480000Y93700D02*
D03*
X517900Y190000D02*
D03*
X592800Y180800D02*
D03*
X72800Y177800D02*
D03*
X76300Y169500D02*
D03*
X72750Y167750D02*
D03*
X64300Y190800D02*
D03*
X72500Y105800D02*
D03*
X90000Y149500D02*
D03*
X96000Y116200D02*
D03*
X114100Y131900D02*
D03*
X111100Y149500D02*
D03*
X114600Y154500D02*
D03*
X105000Y70700D02*
D03*
X315000Y242300D02*
D03*
X266260Y123500D02*
D03*
X271600Y141100D02*
D03*
X309900Y300100D02*
D03*
X230060Y135000D02*
D03*
M02*
