M48
;Layer_Color=9474304
;FILE_FORMAT=2:5
INCH,LZ
;TYPE=PLATED
T1F00S00C0.01500
T2F00S00C0.02984
T3F00S00C0.03087
T4F00S00C0.03150
T5F00S00C0.03228
T6F00S00C0.03740
T7F00S00C0.04134
T8F00S00C0.04331
T9F00S00C0.04528
T10F00S00C0.04724
T11F00S00C0.05000
T12F00S00C0.05039
T13F00S00C0.05118
T14F00S00C0.05866
T15F00S00C0.05906
T16F00S00C0.12913
T17F00S00C0.16929
%
T01
X048Y00937
X03889Y00333
X024026Y001684
X023006Y0135
X02607Y01361
X02716Y01411
X026626Y01235
X01141Y01319
X01135Y01395
X0096Y01162
X00725Y01058
X0105Y00707
X007695Y00419
X009Y01495
X01111
X01146Y01545
X00763Y01695
X007275Y016775
X00728Y01778
X00643Y01908
X00956Y02166
X00921Y02247
X0239Y02164
X0232Y02007
X023626Y0195
X02519Y01893
X026988Y0199
X027348Y01954
X02549Y02411
Y02539
X025156Y02732
X02782
X03073Y02411
X0315Y02423
X03203Y02617
X03525Y02225
X04453Y018
X04418Y017
X051Y01835
X05179Y019
X05928Y01808
X03099Y03001
T02
X0339626Y015
Y016
Y017
Y018
X0370374
Y017
Y016
Y015
T03
X0399626Y003
Y004
Y005
Y006
Y007
Y008
Y009
Y01
Y011
Y012
Y013
Y014
X0460374
Y013
Y012
Y011
Y01
Y009
Y008
Y007
Y006
Y005
Y004
Y003
Y015
Y016
Y017
Y018
Y019
Y02
Y021
Y022
X0399626
Y021
Y02
Y019
Y018
Y017
Y016
Y015
T04
X024761Y0025
X026139
X0291063Y017
X0298937
X0316063
X0323937
X0546063Y0165
X0553937
T05
X0205Y0084685
X0215
X021Y009
X0205Y012
X0215
X021Y0125315
X0205Y0154685
X0215
X021Y016
X0295Y0209685
X0305
X03Y0215
T06
X002Y0115
Y0125
Y0135
X006
Y0125
Y0115
Y0145
Y0155
Y0165
Y0175
Y0185
X002
Y0175
Y0165
Y0155
Y0145
T07
X052Y0024488
Y008
T08
X055663Y0056
X0596
X0075Y0035
Y0025
X0065
Y0035
X0055
Y0025
X0045
Y0035
X0035
Y0025
X06Y018
Y019
Y02
Y021
Y022
X061
Y021
Y02
Y019
Y018
T09
X048Y0025
X049
X05
X049Y005
X048
Y006
X049
Y007
X048
Y01
Y011
Y012
Y013
X038Y011
Y01
Y009
Y008
Y007
X048Y016
Y017
Y018
Y0205
Y0215
Y0225
T10
X0030157Y0245472
X004
X0049843
Y0302559
X0030157
T11
X0335Y0215
Y0225
X0365
Y0215
T12
X017Y0135
Y0145
Y0155
T13
X06Y012
Y014
X0204528Y019
X0175
Y0250079
Y0269921
Y0289764
X0204528
Y0269921
Y0250079
X035Y029
X037
X0515
X0535
T14
X0314289Y00204
X0334289
X0354289
X0355Y0045
X0335
X0315
X0295
X0294289Y00204
T15
X0405Y029
X0425
X046
X048
T16
X0017953Y0275
X0062047
T17
X0155Y002
X012
X061Y03
X0155
X012
M30
